<?xml version="1.0" encoding="utf-8"?>
<!-- Generator: Adobe Illustrator 16.0.0, SVG Export Plug-In . SVG Version: 6.00 Build 0)  -->
<!DOCTYPE svg PUBLIC "-//W3C//DTD SVG 1.1//EN" "http://www.w3.org/Graphics/SVG/1.1/DTD/svg11.dtd">
<svg version="1.1" xmlns="http://www.w3.org/2000/svg" xmlns:xlink="http://www.w3.org/1999/xlink" x="0px" y="0px" width="1392px"
	 height="500px" viewBox="0 0 1392 500" enable-background="new 0 0 1392 500" xml:space="preserve">
<g id="Capa_2" display="none">
	<linearGradient id="SVGID_1_" gradientUnits="userSpaceOnUse" x1="695.9995" y1="-1" x2="695.9995" y2="545.8501">
		<stop  offset="0" style="stop-color:#DADADA"/>
		<stop  offset="0.0078" style="stop-color:#D4D9DB"/>
		<stop  offset="0.0513" style="stop-color:#B1CFE0"/>
		<stop  offset="0.0962" style="stop-color:#85C3E3"/>
		<stop  offset="0.1414" style="stop-color:#4BB8E4"/>
		<stop  offset="0.1871" style="stop-color:#00AFE4"/>
		<stop  offset="0.2332" style="stop-color:#00A7E4"/>
		<stop  offset="0.2801" style="stop-color:#00A3E4"/>
		<stop  offset="0.3282" style="stop-color:#00A0E4"/>
		<stop  offset="0.3794" style="stop-color:#009FE3"/>
		<stop  offset="0.6685" style="stop-color:#1D71B8"/>
		<stop  offset="0.8876" style="stop-color:#312783"/>
		<stop  offset="1" style="stop-color:#312783"/>
	</linearGradient>
	<linearGradient id="SVGID_2_" gradientUnits="userSpaceOnUse" x1="-0.5" y1="272.4248" x2="1392.5" y2="272.4248">
		<stop  offset="0" style="stop-color:#FFEF26"/>
		<stop  offset="0.0595" style="stop-color:#FFE000"/>
		<stop  offset="0.1303" style="stop-color:#FFD300"/>
		<stop  offset="0.2032" style="stop-color:#FECB00"/>
		<stop  offset="0.2809" style="stop-color:#FDC800"/>
		<stop  offset="0.6685" style="stop-color:#F18F34"/>
		<stop  offset="0.8876" style="stop-color:#E95F32"/>
		<stop  offset="1" style="stop-color:#E3312D"/>
	</linearGradient>
	
		<rect y="-1" display="inline" opacity="0.8" fill="url(#SVGID_1_)" stroke="url(#SVGID_2_)" stroke-miterlimit="10" width="1392" height="546.85"/>
</g>
<g id="Capa_1" display="none">
	<g display="inline" opacity="0.5">
		<g>
			<polygon fill="none" stroke="#F6F6F6" stroke-width="4" stroke-miterlimit="10" points="713.607,421.895 829.688,383.966 
				920.572,465.524 895.385,585.016 779.311,622.947 688.418,541.388 			"/>
		</g>
		<g>
			<polygon fill="none" stroke="#F6F6F6" stroke-width="4" stroke-miterlimit="10" points="571.469,578.115 687.55,540.184 
				778.438,621.743 753.247,741.235 637.174,779.166 546.283,697.607 			"/>
		</g>
		<g>
			<polygon fill="none" stroke="#F6F6F6" stroke-width="4" stroke-miterlimit="10" points="507.995,377.21 624.073,339.277 
				714.963,420.838 689.772,540.33 573.697,578.261 482.807,496.702 			"/>
		</g>
		<g>
			<polygon fill="none" stroke="#F6F6F6" stroke-width="4" stroke-miterlimit="10" points="543.324,477.389 659.401,439.459 
				750.292,521.018 725.101,640.509 609.025,678.438 518.136,596.882 			"/>
		</g>
	</g>
	<g display="inline" opacity="0.5">
		<polygon fill="none" stroke="#F6F6F6" stroke-width="4" stroke-miterlimit="10" points="115.851,426.362 -6.656,214.171 
			115.851,1.984 360.867,1.984 483.371,214.171 360.867,426.362 		"/>
	</g>
	<g display="inline" opacity="0.5">
		<polygon fill="none" stroke="#F6F6F6" stroke-width="4" stroke-miterlimit="10" points="237.221,216.198 114.714,4.008 
			237.221,-208.179 482.236,-208.179 604.74,4.008 482.236,216.198 		"/>
	</g>
	<g display="inline" opacity="0.5">
		<polygon fill="none" stroke="#F6F6F6" stroke-width="4" stroke-miterlimit="10" points="-130.167,426 -252.672,213.808 
			-130.167,1.623 114.849,1.623 237.353,213.808 114.849,426 		"/>
	</g>
	<g display="inline" opacity="0.5">
		<polygon fill="none" stroke="#F6F6F6" stroke-width="4" stroke-miterlimit="10" points="-249.536,208.282 -372.043,-3.908 
			-249.536,-216.095 -4.521,-216.095 117.983,-3.908 -4.521,208.282 		"/>
	</g>
	<g display="inline" opacity="0.5">
		<g>
			<polygon fill="none" stroke="#F6F6F6" stroke-width="4" stroke-miterlimit="10" points="1391.998,-153.263 1253.584,-73.351 
				1115.173,-153.263 1115.173,-313.088 1253.584,-392.999 1391.998,-313.088 			"/>
		</g>
		<g>
			<polygon fill="none" stroke="#F6F6F6" stroke-width="4" stroke-miterlimit="10" points="1391.997,166.386 1253.582,246.297 
				1115.171,166.386 1115.171,6.561 1253.582,-73.351 1391.997,6.561 			"/>
		</g>
		<g>
			<polygon fill="none" stroke="#F6F6F6" stroke-width="4" stroke-miterlimit="10" points="1253.584,408.739 1115.168,488.651 
				976.758,408.739 976.758,248.913 1115.168,169.002 1253.584,248.913 			"/>
		</g>
		<g>
			<polygon fill="none" stroke="#F6F6F6" stroke-width="4" stroke-miterlimit="10" points="1391.998,-153.263 1253.584,-73.351 
				1115.173,-153.263 1115.173,-313.088 1253.584,-392.999 1391.998,-313.088 			"/>
		</g>
		<g>
			<polygon fill="none" stroke="#F6F6F6" stroke-width="4" stroke-miterlimit="10" points="1391.997,166.386 1253.582,246.297 
				1115.171,166.386 1115.171,6.561 1253.582,-73.351 1391.997,6.561 			"/>
		</g>
		<g>
			<polygon fill="none" stroke="#F6F6F6" stroke-width="4" stroke-miterlimit="10" points="1253.584,408.739 1115.168,488.651 
				976.758,408.739 976.758,248.913 1115.168,169.002 1253.584,248.913 			"/>
		</g>
		<g>
			<polygon fill="none" stroke="#F6F6F6" stroke-width="4" stroke-miterlimit="10" points="1387.866,486.619 1249.452,566.531 
				1111.041,486.619 1111.041,326.793 1249.452,246.884 1387.866,326.793 			"/>
		</g>
		<g>
			<polygon fill="none" stroke="#F6F6F6" stroke-width="4" stroke-miterlimit="10" points="1254.31,163.422 1115.896,243.332 
				977.483,163.422 977.483,3.596 1115.896,-76.315 1254.31,3.596 			"/>
		</g>
		<g>
			<polygon fill="none" stroke="#F6F6F6" stroke-width="4" stroke-miterlimit="10" points="1257.024,-73.111 1118.61,6.8 
				980.199,-73.111 980.199,-232.937 1118.61,-312.848 1257.024,-232.937 			"/>
		</g>
	</g>
</g>
<g id="Capa_3" display="none">
	<linearGradient id="SVGID_3_" gradientUnits="userSpaceOnUse" x1="681.0005" y1="529" x2="681.0005" y2="-46.9995">
		<stop  offset="0" style="stop-color:#36A9E1"/>
		<stop  offset="0.0189" style="stop-color:#32A0DA"/>
		<stop  offset="0.0861" style="stop-color:#2A81C2"/>
		<stop  offset="0.1549" style="stop-color:#2B66AD"/>
		<stop  offset="0.2241" style="stop-color:#2E519C"/>
		<stop  offset="0.2939" style="stop-color:#2F4190"/>
		<stop  offset="0.3646" style="stop-color:#2E3688"/>
		<stop  offset="0.4367" style="stop-color:#2D3085"/>
		<stop  offset="0.5124" style="stop-color:#2D2E83"/>
		<stop  offset="0.6341" style="stop-color:#2D2E83"/>
		<stop  offset="0.7063" style="stop-color:#2D3789"/>
		<stop  offset="0.8496" style="stop-color:#2A519D"/>
		<stop  offset="1" style="stop-color:#1D71B8"/>
	</linearGradient>
	
		<rect x="-55" y="-47" display="inline" fill="url(#SVGID_3_)" stroke="#F6F6F6" stroke-width="4" stroke-miterlimit="10" width="1472" height="576"/>
</g>
<g id="nubes" display="none">
	<g display="inline" opacity="0.6">
		<path fill="#FFFFFF" d="M547.374,370.96l-8.999,7.943c5.363,6.072,11.146,11.838,17.201,17.135l7.901-9.035
			C557.813,382.054,552.396,376.647,547.374,370.96z"/>
		<path fill="#FFFFFF" d="M618.402,432.244c7.645,2.585,15.552,4.691,23.502,6.258l2.315-11.779
			c-7.435-1.458-14.826-3.427-21.978-5.85L618.402,432.244z"/>
		<path fill="#FFFFFF" d="M507.402,290.428l-11.766,2.357c1.59,7.914,3.72,15.81,6.336,23.46l11.357-3.876
			C510.883,305.206,508.885,297.825,507.402,290.428z"/>
		<path fill="#FFFFFF" d="M511.332,338.656c3.588,7.225,7.698,14.293,12.209,20.994l9.955-6.689
			c-4.218-6.276-8.058-12.883-11.417-19.645L511.332,338.656z"/>
		<path fill="#FFFFFF" d="M666.769,429.64l-0.768,11.982c3.966,0.252,7.968,0.378,12,0.378c4.11,0,8.249-0.132,12.287-0.396
			l-0.785-11.976C681.99,430.12,674.285,430.125,666.769,429.64z"/>
		<path fill="#FFFFFF" d="M712.044,426.669l2.339,11.766c7.927-1.571,15.822-3.684,23.479-6.281l-3.864-11.371
			C726.846,423.22,719.46,425.193,712.044,426.669z"/>
		<g>
			<path fill="#009FE3" d="M678.001,268.001c-6.631,0-12-5.37-12-12.001c0-6.63,5.369-12,12-12c2.196,0,4.229,0.637,6.001,1.662
				V76.15c-1.998-0.067-3.99-0.15-6.001-0.15c-99.415,0-180,80.585-180,180c0,99.416,80.585,180,180,180
				c2.009,0,4.003-0.084,6.001-0.149V266.338C682.23,267.364,680.195,268.001,678.001,268.001z"/>
			<path fill="#FFFFFF" d="M851.622,267.609l11.977,0.786C863.862,264.304,864,260.128,864,256h-12
				C852,259.899,851.874,263.77,851.622,267.609z"/>
			<path fill="#FFFFFF" d="M574.873,410.817c6.73,4.488,13.813,8.58,21.053,12.144l5.305-10.77
				c-6.774-3.336-13.398-7.151-19.698-11.364L574.873,410.817z"/>
			<path fill="#FFFFFF" d="M822.618,352.791l9.965,6.678c4.501-6.713,8.605-13.794,12.187-21.035l-10.752-5.322
				C830.664,339.88,826.83,346.504,822.618,352.791z"/>
			<path fill="#FFFFFF" d="M842.748,312.123l11.364,3.869c2.604-7.638,4.728-15.546,6.307-23.49l-11.772-2.347
				C847.171,297.586,845.185,304.972,842.748,312.123z"/>
			<path fill="#FFFFFF" d="M792.672,386.878l7.908,9.023c6.06-5.31,11.844-11.089,17.184-17.166l-9.012-7.92
				C803.754,376.498,798.342,381.904,792.672,386.878z"/>
			<path fill="#FFFFFF" d="M754.969,412.102l5.315,10.758c7.224-3.569,14.298-7.661,21.024-12.162l-6.672-9.973
				C768.342,404.933,761.724,408.759,754.969,412.102z"/>
			<path fill="#FFFFFF" d="M504,256c0-95.946,78.055-174,174.001-174c30.869,0,60.774,8.112,87.196,23.453l-17.43,6.972
				l4.459,11.143l33.774-13.507V76h-12v20.796C745.067,79.305,712.093,70,678.001,70C575.441,70,492,153.441,492,256
				c0,4.128,0.138,8.304,0.402,12.391l11.976-0.786C504.125,263.77,504,259.899,504,256z"/>
			<path fill="#FFFFFF" d="M810,214c0-3.457-1.026-6.66-2.724-9.402l32.874-51.654c1.842,0.636,3.791,1.056,5.849,1.056
				c9.925,0,18.001-8.075,18.001-18.001c0-9.925-8.076-17.999-17.999-17.999c-9.924,0-18.001,8.076-18.001,18
				c0,3.457,1.026,6.66,2.724,9.402l-32.874,51.654C796.008,196.42,794.057,196,792,196c-4.733,0-9.013,1.873-12.228,4.867
				l-24.024-14.413c0.113-0.81,0.252-1.614,0.252-2.454c0-9.924-8.076-18-18-18c-9.926,0-18.001,8.075-18.001,18
				c0,3.114,0.87,6.006,2.268,8.562l-37.44,46.801c-0.264-0.107-0.558-0.163-0.828-0.259V106h-6c-82.71,0-150,67.29-150,150
				c0,82.711,67.291,150,150.003,150H684V272.896c6.965-2.484,12-9.084,12-16.896c0-3.114-0.871-6.006-2.269-8.562l37.44-46.801
				c2.112,0.871,4.41,1.362,6.828,1.362c4.732,0,9.012-1.872,12.228-4.866l24.023,14.412c-0.113,0.81-0.252,1.614-0.252,2.453
				c0,9.924,8.076,18.001,18.001,18.001C801.926,231.999,810,223.924,810,214z M846.001,130c3.306,0,6.001,2.695,6.001,6
				c0,3.307-2.695,6.001-6.001,6.001c-3.307,0-6.001-2.694-6.001-6.001C840,132.694,842.694,130,846.001,130z M672,189.741
				c-18.072-0.913-34.428-5.725-48.156-11.796c15.197-29.731,36.366-47.226,48.156-55.26V189.741z M613.338,172.833
				c-13.008-6.918-22.771-14.269-28.199-18.78c19.469-17.749,44.01-30.006,71.172-34.314
				C643.386,130.299,626.34,147.617,613.338,172.833z M608.185,183.838c-7.825,18.33-13.296,40.266-14.046,66.161H540.15
				c1.445-33.646,15.012-64.194,36.412-87.42C582.39,167.56,593.322,176.002,608.185,183.838z M594.137,262
				c0.744,25.902,6.223,47.837,14.047,66.161c-14.863,7.836-25.795,16.278-31.621,21.252
				c-21.406-23.219-34.967-53.765-36.412-87.413H594.137z M613.338,339.166c13.002,25.218,30.048,42.534,42.973,53.094
				c-27.169-4.308-51.709-16.565-71.172-34.313C590.567,353.435,600.33,346.078,613.338,339.166z M624.078,333.957
				c13.681-6.029,29.951-10.788,47.922-11.693v66.93C660.313,381.058,639.282,363.43,624.078,333.957z M672,310.252
				c-20.076,0.906-38.064,6.095-53.045,12.701c-7.105-16.89-12.086-37.092-12.812-60.948h54.966
				c1.813,5.082,5.814,9.084,10.897,10.896v37.351H672L672,310.252z M661.104,249.999h-54.972
				c0.715-23.952,5.616-44.171,12.624-61.031c15.024,6.641,33.085,11.874,53.245,12.779v37.356
				C666.918,240.916,662.916,244.918,661.104,249.999z M678.001,262c-3.307,0-6.001-2.695-6.001-6.001c0-3.307,2.694-6,6.001-6
				c3.306,0,6.001,2.693,6.001,6C684,259.305,681.306,262,678.001,262z M738.001,190c-3.307,0-6.001-2.695-6.001-6.001
				c0-3.307,2.694-6,6.001-6c3.306,0,6,2.694,6,6C744.001,187.305,741.306,190,738.001,190z M792,220c-3.306,0-6.001-2.693-6.001-6
				s2.695-6.001,6.001-6.001c3.307,0,6,2.694,6,6.001S795.307,220,792,220z"/>
		</g>
	</g>
</g>
<g id="Capa_5" display="none">
	<linearGradient id="SVGID_4_" gradientUnits="userSpaceOnUse" x1="694.0005" y1="525" x2="694.0005" y2="-38.9995">
		<stop  offset="0" style="stop-color:#FFEF26"/>
		<stop  offset="0.0595" style="stop-color:#FFE000"/>
		<stop  offset="0.1303" style="stop-color:#FFD300"/>
		<stop  offset="0.2032" style="stop-color:#FECB00"/>
		<stop  offset="0.2809" style="stop-color:#FDC800"/>
		<stop  offset="0.6685" style="stop-color:#F18F34"/>
		<stop  offset="0.8876" style="stop-color:#E95F32"/>
		<stop  offset="1" style="stop-color:#E3312D"/>
	</linearGradient>
	<rect x="-39" y="-39" display="inline" fill="url(#SVGID_4_)" width="1466" height="564"/>
</g>
<g id="Capa_6" display="none">
	<g display="inline" opacity="0.6">
		<polygon fill="#343434" points="753,225 753,238.999 907,238.999 907,448.999 515,448.999 515,238.999 669,238.999 669,225 
			501,225 501,463 921,463 921,225 		"/>
		<path fill="#343434" d="M570.292,267H676v-14H557v7.001c0,11.577-9.421,21-21,21h-7.001v126h7.001c11.578,0,21,9.421,21,21.001
			v7.001h307.61l0.699-6.223c1.281-11.369,10.102-20.202,21.47-21.463l6.223-0.7V281H886c-11.578,0-21.002-9.422-21.002-21.001V253
			H745.999v14h105.708c2.786,13.692,13.601,24.507,27.293,27.294v100.31c-12.83,3.605-22.785,13.565-26.398,26.397H744.473
			c29.693-12.964,50.525-42.581,50.525-76.999c0-35.434-22.47-67.221-55.916-79.094l-4.684,13.196
			c27.875,9.897,46.601,36.379,46.601,65.897c0,38.598-31.402,70-70.001,70c-38.598,0-70-31.402-70-70
			c0-29.519,18.733-56,46.606-65.897l-4.683-13.196c-33.454,11.873-55.923,43.66-55.923,79.094
			c0,34.418,20.832,64.035,50.525,77.001H570.292c-2.787-13.693-13.602-24.508-27.293-27.294v-99.415
			C556.691,291.507,567.505,280.692,570.292,267z"/>
		<path fill="#343434" d="M676,322.999c0,15.443,12.557,28,28,28H711h6.999c7.721,0,14,6.279,14,14.001c0,7.721-6.279,14-14,14h-14
			c-7.72,0-14-6.279-14-14v-7.001h-14V365c0,15.442,12.557,28,28,28v14h14v-14c15.442,0,28-12.558,28-28s-12.558-28.001-28-28.001
			h-7.001h-7c-7.721,0-14-6.279-14-14c0-6.418,4.382-11.983,10.653-13.538l-3.352-13.587C684.756,298.969,676,310.127,676,322.999z"
			/>
		<path fill="#343434" d="M731.999,322.999V330h14v-7.001c0-12.872-8.757-24.03-21.293-27.125l-3.353,13.587
			C727.617,311.016,731.999,316.581,731.999,322.999z"/>
		<path fill="#FFFFFF" stroke="#000000" stroke-width="4" stroke-miterlimit="10" d="M711,350.999L619.999,148h182L711,350.999z"/>
		<path fill="#FFFFFF" stroke="#000000" stroke-width="4" stroke-miterlimit="10" d="M711,141c-30.877,0-56-25.123-56-56
			s25.123-56,56-56c30.878,0,56,25.122,56,56S741.876,141,711,141z"/>
	</g>
</g>
<g id="Capa_7" display="none">
	<linearGradient id="SVGID_5_" gradientUnits="userSpaceOnUse" x1="686.9995" y1="-39" x2="686.9995" y2="553.0005">
		<stop  offset="0" style="stop-color:#3AAA35"/>
		<stop  offset="0.2022" style="stop-color:#36AB4F"/>
		<stop  offset="0.3784" style="stop-color:#31AC60"/>
		<stop  offset="0.4912" style="stop-color:#2FAC66"/>
		<stop  offset="0.9468" style="stop-color:#008D36"/>
	</linearGradient>
	<rect x="-49" y="-39" display="inline" fill="url(#SVGID_5_)" width="1472" height="592"/>
</g>
<g id="Capa_8" display="none">
	<g display="inline" opacity="0.6">
		<path fill="#FFFFFF" d="M868.62,120.549v-0.042l-9.437-0.978c-3.073-36.879-11.124-90.462-32.928-90.462
			c-2.25,0-4.267,0.64-6.258,1.737l-52.881,17.641c-17.41,5.808-35.509,8.747-53.866,8.747h-69.629
			c-62.028,0-112.499,50.469-112.499,112.498c0,50.504,33.462,93.332,79.382,107.507l-39.739,33.116H503v14.063h72.857
			l41.279-34.404l43.488,12.425l14.792,18.492c1.962,2.446,2.82,5.505,2.433,8.62c-0.4,3.108-1.99,5.857-4.5,7.733
			c-4.542,3.403-10.997,2.938-15.012-1.062l-14.196-14.188l-40.07,32.056l8.789,10.982l16.699-13.359v57.078h-47.559l-14.063-7.031
			H503v14.063h61.621l14.063,7.032h50.878v7.031c0,19.385,15.77,35.156,35.157,35.156c19.385,0,35.156-15.771,35.156-35.156v-7.031
			c11.629,0,21.095-9.464,21.095-21.095c0-5.421-2.117-10.321-5.484-14.063c3.375-3.74,5.484-8.642,5.484-14.063
			c0-5.42-2.117-10.321-5.484-14.063c3.375-3.74,5.484-8.641,5.484-14.062c0-5.422-2.117-10.321-5.484-14.063
			c3.375-3.741,5.484-8.642,5.484-14.063c0-11.629-9.464-21.094-21.095-21.094v-14.063h13.374c18.358,0,36.498,2.938,53.915,8.747
			l52.924,17.641c1.989,1.097,4.1,1.736,6.349,1.736c21.804,0,29.679-53.584,32.751-90.462l9.437-0.978v-0.042
			c14.062-0.795,20.396-25.052,20.396-49.141C889.02,145.6,882.683,121.343,868.62,120.549z M806.73,210.998
			c-0.871-12.537-1.392-26.311-1.392-41.308c0-14.997,0.521-28.771,1.392-41.308l47.046,4.704
			c-4.246,9.463-6.251,23.055-6.251,36.604c0,13.549,2.005,27.141,6.251,36.604L806.73,210.998z M845.297,118.102l-37.378-3.741
			c4-40.675,11.791-65.257,17.009-70.354l1.8-0.597C831.199,46.265,840.805,67.598,845.297,118.102z M681.787,348.491
			c3.537-2.65,6.146-6.138,7.882-10.054h10.203c3.881,0,7.032,3.157,7.032,7.031c0,3.875-3.15,7.032-7.032,7.032h-26.121
			C676.584,351.662,679.312,350.341,681.787,348.491z M706.902,373.594c0,3.875-3.149,7.032-7.031,7.032h-28.125
			c-3.882,0-7.032-3.157-7.032-7.032c0-3.874,3.15-7.032,7.032-7.032h28.125C703.753,366.562,706.902,369.72,706.902,373.594z
			 M685.81,429.843c0,11.63-9.463,21.094-21.094,21.094c-11.631,0-21.094-9.463-21.094-21.094v-88.494l4.774,4.767
			c0.788,0.795,1.667,1.441,2.538,2.109c0.577,4.324,2.418,8.22,5.21,11.307c-3.375,3.741-5.484,8.642-5.484,14.063
			s2.117,10.321,5.484,14.063c-3.375,3.741-5.484,8.641-5.484,14.062c0,11.63,9.462,21.095,21.094,21.095h14.062v7.03H685.81z
			 M699.872,408.748h-28.124c-3.883,0-7.032-3.157-7.032-7.031s3.149-7.031,7.032-7.031h28.124c3.881,0,7.032,3.157,7.032,7.031
			S703.753,408.748,699.872,408.748z M706.902,317.345c0,3.874-3.149,7.032-7.031,7.032h-8.248
			c-0.64-4.438-2.341-8.671-5.224-12.276l-1.428-1.786h14.899C703.753,310.313,706.902,313.47,706.902,317.345z M685.81,296.25
			h-12.087l-4.916-6.146l-28.25-8.071c1.025,0.029,2.032,0.155,3.065,0.155h42.187V296.25z M713.245,268.126h-69.622
			c-54.28,0-98.437-44.157-98.437-98.437c0-54.28,44.155-98.436,98.437-98.436h69.629c19.87,0,39.5-3.184,58.358-9.471
			l34.763-11.587c-11.51,29.417-15.096,83.186-15.096,119.494c0,36.308,3.586,90.077,15.096,119.494l-34.763-11.587
			C752.752,271.311,733.122,268.126,713.245,268.126z M826.995,296.06l-1.321-0.442c-5.498-4.288-13.633-28.982-17.746-70.607
			l37.371-3.741C840.755,272.351,831.01,293.592,826.995,296.06z M868.62,204.206c-2.601-3.305-7.032-15.088-7.032-34.516
			c0-19.428,4.43-31.212,7.032-34.517c2.602,3.305,7.032,15.088,7.032,34.517C875.652,189.117,871.222,200.901,868.62,204.206z"/>
		<rect x="903.775" y="162.659" fill="#FFFFFF" width="21.094" height="14.062"/>
		
			<rect x="896.162" y="81.788" transform="matrix(-0.9486 0.3164 -0.3164 -0.9486 1796.0432 -114.0057)" fill="#FFFFFF" width="22.232" height="14.062"/>
		
			<rect x="900.25" y="239.418" transform="matrix(-0.3162 0.9487 -0.9487 -0.3162 1431.8835 -530.951)" fill="#FFFFFF" width="14.063" height="22.233"/>
		<rect x="685.81" y="57.191" fill="#F39200" width="28.125" height="224.997"/>
	</g>
</g>
<g id="Capa_9" display="none">
	<linearGradient id="SVGID_6_" gradientUnits="userSpaceOnUse" x1="693.9995" y1="-67" x2="693.9995" y2="577.0005">
		<stop  offset="0.0345" style="stop-color:#936037"/>
		<stop  offset="0.2225" style="stop-color:#AF7E4E"/>
		<stop  offset="0.3864" style="stop-color:#C29560"/>
		<stop  offset="0.4912" style="stop-color:#CA9E67"/>
		<stop  offset="0.9468" style="stop-color:#B17F4A"/>
	</linearGradient>
	<rect x="-67" y="-67" display="inline" fill="url(#SVGID_6_)" width="1522" height="644"/>
</g>
<g id="Capa_10" display="none">
	<g display="inline" opacity="0.6">
		<circle fill="#1D71B8" cx="583.938" cy="375.259" r="21.982"/>
		<circle fill="#1D71B8" cx="842.308" cy="375.259" r="21.982"/>
		<path fill="#F6F6F6" d="M639.846,367.026h-26.958c-3.619-12.665-15.198-21.983-29.039-21.983
			c-16.646,0-30.125,13.57-30.125,30.126c0,16.646,13.569,30.125,30.125,30.125c13.751,0,25.42-9.318,29.039-21.983h26.958
			c18.093,0,32.839-14.746,32.839-32.84v-50.298c0-4.523-3.709-8.232-8.232-8.232c-4.524,0-8.232,3.709-8.232,8.232v50.298
			C656.312,359.608,648.983,367.026,639.846,367.026z M583.938,389.01c-7.599,0-13.75-6.151-13.75-13.751s6.151-13.75,13.75-13.75
			c7.6,0,13.751,6.15,13.751,13.75C597.689,382.768,591.447,389.01,583.938,389.01z"/>
		<path fill="#F6F6F6" d="M761.703,292.121c-4.522,0-8.232,3.709-8.232,8.232v50.299c0,18.093,14.746,32.839,32.839,32.839h26.959
			c3.619,12.665,15.197,21.983,29.039,21.983c16.646,0,30.125-13.57,30.125-30.126c0-16.646-13.569-30.124-30.125-30.124
			c-13.751,0-25.42,9.317-29.039,21.982H786.4c-9.046,0-16.465-7.417-16.465-16.464v-50.299
			C769.936,295.74,766.227,292.121,761.703,292.121z M842.308,361.418c7.6,0,13.751,6.151,13.751,13.751
			c0,7.599-6.151,13.75-13.751,13.75c-7.599,0-13.751-6.151-13.751-13.75C828.558,367.659,834.8,361.418,842.308,361.418z"/>
		<circle fill="#1D71B8" cx="713.123" cy="434.875" r="21.983"/>
		<path fill="#F6F6F6" d="M722.079,22.986c-33.291,0-64.14,18.184-80.423,46.861c-3.347-0.723-6.694-0.994-10.223-0.994
			c-27.683,0-50.299,22.525-50.299,50.298c0,3.709,0.362,7.328,1.176,10.947C564.127,142.944,553,164.203,553,186.82
			c0,37.815,30.306,71.467,66.22,73.458c0.181,0,0.272,0,0.452,0h178.941c0.181,0,0.361,0,0.543,0c41.523-2.896,74-38.539,74-80.967
			c0-37.09-25.329-69.93-59.888-78.795C806.212,55.916,767.945,22.986,722.079,22.986z M856.872,179.311
			c0,33.292-26.233,62.24-58.439,64.593H619.944c-27.412-1.629-50.571-27.773-50.571-57.083c0-18.998,10.223-36.729,26.597-46.229
			c3.438-1.99,4.976-6.242,3.528-9.951c-1.357-3.619-1.99-7.509-1.99-11.58c0-18.727,15.198-33.924,33.924-33.924
			c3.98,0,7.87,0.723,11.58,1.99c3.981,1.448,8.413-0.362,10.313-4.161C665.81,56.458,692.859,39.36,722.17,39.36
			c39.442,0,72.011,29.493,75.72,68.664c0.361,3.709,3.167,6.695,6.784,7.328C834.347,120.417,856.872,147.919,856.872,179.311z"/>
		<path fill="#F6F6F6" d="M713.123,292.121c-4.523,0-8.231,3.709-8.231,8.232v105.573c-12.395,3.528-21.622,14.837-21.983,28.225
			c-0.182,8.052,2.804,15.742,8.322,21.531c5.519,5.79,13.027,9.137,21.078,9.318h0.725l0,0c16.193,0,29.763-13.209,30.124-29.401
			c0.182-8.052-2.804-15.741-8.322-21.531c-3.799-3.98-8.503-6.785-13.659-8.232V300.263
			C721.355,295.74,717.646,292.121,713.123,292.121z M726.874,435.237c-0.181,7.419-6.333,13.39-13.751,13.39h-0.361
			c-3.709-0.091-7.057-1.629-9.59-4.252c-2.532-2.624-3.89-6.152-3.8-9.861c0.182-7.418,6.333-13.389,13.751-13.389h0.362
			c3.709,0.091,7.056,1.628,9.589,4.252C725.607,428,726.965,431.528,726.874,435.237z"/>
	</g>
</g>
<g id="Capa_12">
	<linearGradient id="SVGID_7_" gradientUnits="userSpaceOnUse" x1="654.9995" y1="-26" x2="654.9995" y2="566.0005">
		<stop  offset="0" style="stop-color:#FFFFFF"/>
		<stop  offset="1" style="stop-color:#36A9E1"/>
	</linearGradient>
	<rect x="-83" y="-26" fill="url(#SVGID_7_)" stroke="#000000" stroke-miterlimit="10" width="1476" height="592"/>
</g>
<g id="Capa_11">
	<ellipse fill="none" stroke="#E6332A" stroke-miterlimit="10" cx="-56" cy="-231" rx="3" ry="0"/>
	<g>
		<g opacity="0.6">
			<path fill="#E30613" d="M702.973,413.488c-1.334-0.038-3.977-0.781-5.918-2.84c-23.896-26.698-83.779-99.785-105.712-125.092
				c-0.628-1.352-0.608-2.018,0.077-2.665c5.465-4.506,8.855-6.411,12.109-3.648c26.048,21.429,74.263,60.169,97.743,78.188
				c29.99-22.464,74.318-56.517,97.551-75.843c2.742-2.589,6.679-0.473,11.248,2.995c0.647,0.683,1.292,1.368-0.078,2.666
				c-20.723,24.733-79.575,99.698-100.964,124.414c-1.372,1.294-3.39,1.902-5.39,1.843L702.973,413.488z"/>
			<path fill="#E30613" d="M677.089,166.467c-0.026-4.157,1.441-9.245,2.406-14.793c6.717-44.374,37.516-67.166,69.947-67.334
				c61.373-0.319,89.153,55.425,89.54,119.16c0.169,27.71-7.16,53.613-18.551,67.99c-2.97,3.711-11.471,0.522-11.48-0.863
				c-0.002-0.461-0.002-0.461,0.49-1.389c7.914-11.587,12.275-32.856,12.157-52.254c-0.224-36.948-23.856-66.847-65.27-66.632
				c-33.93,0.177-67.732,21.137-68.359,82.568c0.017,2.771-2.97,3.71-7.457,4.195c-1.497,0.008-2-0.452-2.011-2.298
				c-3.826-54.942-33.387-75.111-70.311-74.92c-28.442,0.148-48.792,17.804-48.627,45.054c0.132,21.706,15.242,44.722,31.776,56.183
				c0.502,0.46,1.006,1.38,1.008,1.843c0.011,1.848-8.447,5.585-10.954,3.75c-21.034-12.822-44.676-44.107-44.957-90.291
				c-0.316-52.19,27.952-80.974,67.868-81.181c34.428-0.18,58.055,28.797,67.726,60.153c1.017,3.227,2.535,6.453,3.061,11.069
				L677.089,166.467z"/>
			<g>
				<path fill="#E30613" d="M514.373,663.49L150.03,778.782L-213.496,893.56l-5.441,1.718l1.238-5.592l164.877-744.387l2.117-9.556
					l7.226,6.64l35.09,32.239l35.024,32.311l69.941,64.738l69.797,64.894l69.717,64.981l69.616,65.091l69.494,65.223l69.353,65.376
					L479.157,630L514.373,663.49z M512.226,663.008l-34.823-31.104l-35.474-31.822l-70.804-63.803l-70.663-63.954l-70.541-64.087
					l-70.44-64.196l-70.36-64.283l-70.216-64.439l-35.055-32.278l-34.989-32.349l9.343-2.916L-211.26,891.133l-4.203-3.874
					L148.81,774.875L512.226,663.008z"/>
			</g>
			<g>
				<path fill="#E30613" d="M703.372,727.49L339.029,842.783L-24.496,957.56l-5.441,1.718l1.238-5.592l164.877-744.387l2.117-9.556
					l7.226,6.64l35.09,32.239l35.024,32.31l69.941,64.738l69.797,64.894l69.717,64.98l69.615,65.092l69.494,65.223l69.353,65.376
					L668.157,694L703.372,727.49z M701.226,727.008l-34.824-31.104l-35.474-31.822l-70.804-63.803l-70.663-63.955l-70.541-64.086
					l-70.44-64.196l-70.36-64.283l-70.216-64.439l-35.055-32.278l-34.989-32.349l9.343-2.916L-22.26,955.133l-4.203-3.874
					L337.81,838.875L701.226,727.008z"/>
			</g>
			<g>
				<path fill="#E30613" d="M949.372,837.49L585.029,952.783L221.504,1067.56l-5.441,1.718l1.238-5.592l164.877-744.388l2.117-9.555
					l7.226,6.639l35.09,32.239l35.024,32.311l69.941,64.738l69.797,64.894l69.717,64.98l69.616,65.092l69.493,65.223l69.354,65.376
					L914.157,804L949.372,837.49z M947.226,837.008l-34.824-31.104l-35.474-31.822l-70.803-63.803l-70.663-63.955l-70.541-64.086
					l-70.44-64.196l-70.36-64.283l-70.216-64.439l-35.055-32.278l-34.989-32.349l9.343-2.916L223.74,1065.133l-4.203-3.874
					L583.81,948.875L947.226,837.008z"/>
			</g>
			<g>
				<path fill="#E30613" d="M1383.738,145.938l-181.529,58.235l-90.343,28.935l-90.389,28.789l-5.428,1.729l1.225-5.603
					l40.524-185.346l20.155-92.697l10.024-46.36l10.199-46.321l2.104-9.552l7.24,6.636c5.827,5.341,11.69,10.644,17.488,16.017
					l17.424,16.088l34.738,32.294l34.596,32.45l17.281,16.242l17.233,16.295l17.233,16.294l17.18,16.352l17.171,16.363
					l17.122,16.416l17.104,16.435l17.047,16.496l17.004,16.544L1383.738,145.938z M1381.59,145.456l-17.202-14.883l-17.873-15.601
					l-17.829-15.648l-17.772-15.709l-17.755-15.729l-17.706-15.781l-17.696-15.793l-17.643-15.85l-17.644-15.85l-17.595-15.902
					l-35.158-31.839l-35.014-31.995l-17.453-16.056c-5.828-5.341-11.59-10.754-17.388-16.127l9.342-2.916l-10.601,46.231
					l-10.774,46.192l-21.444,92.407l-42.671,184.864l-4.203-3.874l90.716-27.738l90.762-27.592L1381.59,145.456z"/>
			</g>
			<g>
				<path fill="#E30613" d="M1621.308,526.913l-274.488,106.036L1073.11,738.424l-5.324,2.052l0.893-5.662l45.661-289.752
					l22.722-144.894l11.309-72.455l11.484-72.427l1.531-9.66l7.616,6.179l28.473,23.102l28.412,23.176l56.724,46.476l56.589,46.64
					l28.28,23.338l28.234,23.395l56.421,46.848l28.176,23.466l28.131,23.521l56.176,47.148l28.021,23.656L1621.308,526.913z
					 M1619.135,526.563l-28.133-21.984l-28.83-22.662l-57.528-45.488l-28.72-22.798l-28.676-22.853l-57.283-45.789l-28.617-22.925
					l-28.571-22.979l-57.114-45.996l-56.98-46.162l-28.439-23.142l-28.379-23.217l9.147-3.48l-11.89,72.361l-12.066,72.333
					l-24.027,144.683l-47.833,289.401l-4.431-3.609l274.6-103.132L1619.135,526.563z"/>
			</g>
			<g>
				<path fill="#E30613" d="M1581.048,593.035l-177.642,69.193l-88.41,34.389l-88.465,34.245l-5.313,2.057l0.881-5.667
					l29.149-187.471l14.466-93.754l7.181-46.885l7.356-46.856l1.517-9.662l7.631,6.182c6.142,4.977,12.318,9.911,18.433,14.922
					l18.371,14.996l36.644,30.115l36.509,30.28l18.24,15.158l18.194,15.214l18.194,15.214l18.146,15.274l18.136,15.286
					l18.091,15.341l18.073,15.361l18.021,15.427l17.981,15.476L1581.048,593.035z M1578.874,592.686l-18.077-13.808l-18.791-14.481
					l-18.75-14.532l-18.697-14.597l-18.68-14.618l-18.636-14.672l-18.626-14.685l-18.577-14.744l-18.576-14.745l-18.531-14.8
					l-37.034-29.637l-36.899-29.801l-18.399-14.962c-6.143-4.977-12.224-10.027-18.339-15.037l9.147-3.48l-7.762,46.791
					l-7.938,46.763l-15.771,93.543l-31.321,187.12l-4.432-3.609l88.856-33.218l88.911-33.074L1578.874,592.686z"/>
			</g>
		</g>
	</g>
</g>
<g id="Capa_14" display="none">
	<radialGradient id="SVGID_8_" cx="704.3398" cy="263.5898" r="606.5872" gradientUnits="userSpaceOnUse">
		<stop  offset="0.0246" style="stop-color:#FFFFFF"/>
		<stop  offset="0.0402" style="stop-color:#FCFEFE"/>
		<stop  offset="0.0535" style="stop-color:#F1FAF9"/>
		<stop  offset="0.066" style="stop-color:#DFF3F2"/>
		<stop  offset="0.0781" style="stop-color:#C6EAE9"/>
		<stop  offset="0.0897" style="stop-color:#A6DEDC"/>
		<stop  offset="0.1011" style="stop-color:#7FD0CC"/>
		<stop  offset="0.1123" style="stop-color:#50BEBA"/>
		<stop  offset="0.1231" style="stop-color:#1BABA5"/>
		<stop  offset="0.1281" style="stop-color:#00A19A"/>
		<stop  offset="0.1651" style="stop-color:#00A2A0"/>
		<stop  offset="0.2259" style="stop-color:#00A4B0"/>
		<stop  offset="0.3024" style="stop-color:#22A7CA"/>
		<stop  offset="0.3695" style="stop-color:#36A9E1"/>
		<stop  offset="0.4196" style="stop-color:#2AA8D2"/>
		<stop  offset="0.5031" style="stop-color:#0FA5BB"/>
		<stop  offset="0.5804" style="stop-color:#00A3A9"/>
		<stop  offset="0.6483" style="stop-color:#00A19E"/>
		<stop  offset="0.6995" style="stop-color:#00A19A"/>
		<stop  offset="0.7688" style="stop-color:#00A09C"/>
		<stop  offset="0.8164" style="stop-color:#009DA0"/>
		<stop  offset="0.8574" style="stop-color:#0097A6"/>
		<stop  offset="0.8948" style="stop-color:#008FAD"/>
		<stop  offset="0.9296" style="stop-color:#0083B4"/>
		<stop  offset="0.9622" style="stop-color:#1B73B8"/>
		<stop  offset="0.9655" style="stop-color:#1D71B8"/>
	</radialGradient>
	
		<rect x="-86.871" y="-67.894" display="inline" fill="url(#SVGID_8_)" stroke="#000000" stroke-miterlimit="10" width="1582.421" height="662.967"/>
	
		<rect x="-89.87" y="-73.894" display="inline" opacity="0.4" fill="#C6C6C6" stroke="#000000" stroke-miterlimit="10" width="1598.92" height="719.964"/>
</g>
<g id="Capa_13" display="none">
	<g display="inline" opacity="0.4">
		<ellipse fill="#00A19A" cx="703.5" cy="262.5" rx="62.5" ry="57.5"/>
		<path d="M643.499,262.432c0,0,0.008,0.368,0.022,1.081c0.023,0.702,0.006,1.816,0.132,3.062c0.174,2.545,0.647,6.467,2.087,11.166
			c0.324,1.189,0.811,2.396,1.261,3.681c0.533,1.254,1.056,2.582,1.733,3.908c1.306,2.672,2.941,5.464,4.979,8.248
			c4.06,5.569,9.788,11.105,17.128,15.502c3.665,2.193,7.709,4.126,12.086,5.604c4.377,1.473,9.067,2.525,13.96,3.061
			c1.224,0.127,2.461,0.209,3.705,0.293c1.238,0.019,2.522,0.116,3.747,0.073c1.303-0.017,2.616-0.032,3.853-0.136
			c1.255-0.055,2.534-0.203,3.821-0.349c5.142-0.597,10.307-1.905,15.34-3.798c10.035-3.843,19.47-10.495,26.344-19.497
			c3.441-4.484,6.201-9.544,8.112-14.938c0.929-2.705,1.659-5.483,2.172-8.31c0.468-2.834,0.721-5.704,0.769-8.583
			c-0.011-2.928-0.223-5.744-0.653-8.602c-0.476-2.839-1.17-5.637-2.065-8.367c-1.846-5.443-4.553-10.574-7.961-15.143
			c-6.807-9.17-16.254-16.036-26.382-20.071c-10.155-4.048-20.943-5.323-30.934-4.396c-4.999,0.478-9.808,1.489-14.311,2.937
			c-4.503,1.453-8.68,3.379-12.477,5.583c-7.606,4.417-13.602,10.048-17.889,15.764c-2.152,2.858-3.891,5.736-5.289,8.499
			c-0.723,1.372-1.289,2.748-1.86,4.049c-0.49,1.333-1.012,2.586-1.369,3.823c-1.572,4.907-2.119,8.951-2.345,11.695
			c-0.15,1.374-0.144,2.435-0.177,3.147C641.013,262.132,641,262.5,641,262.5L643.499,262.432z M641,262.5
			c0,0,0.008-0.368,0.022-1.082c0.024-0.713,0.004-1.774,0.136-3.15c0.19-2.751,0.684-6.809,2.196-11.755
			c0.342-1.247,0.85-2.512,1.324-3.859c0.557-1.315,1.108-2.706,1.816-4.095c1.369-2.798,3.082-5.719,5.213-8.628
			c4.245-5.819,10.221-11.587,17.861-16.161c3.814-2.282,8.022-4.29,12.571-5.825c4.549-1.53,9.421-2.623,14.5-3.176
			c10.146-1.077,21.165,0.067,31.627,4.076c10.429,3.998,20.25,10.917,27.427,20.32c3.593,4.685,6.48,9.979,8.48,15.631
			c0.974,2.835,1.737,5.748,2.273,8.71c0.491,2.96,0.758,6.027,0.803,8.994c-0.009,3.016-0.233,6.03-0.688,9.014
			c-0.498,2.976-1.227,5.907-2.167,8.768c-1.935,5.701-4.77,11.067-8.329,15.835c-7.11,9.571-16.944,16.704-27.465,20.895
			c-5.277,2.065-10.707,3.517-16.123,4.219c-1.354,0.172-2.698,0.345-4.071,0.425c-1.385,0.129-2.686,0.159-3.98,0.193
			c-1.373,0.063-2.671-0.02-3.998-0.024c-1.316-0.069-2.626-0.141-3.922-0.258c-5.184-0.496-10.175-1.547-14.851-3.052
			c-4.675-1.51-9.015-3.511-12.962-5.803c-7.906-4.595-14.149-10.458-18.622-16.425c-2.245-2.982-4.062-5.989-5.522-8.879
			c-0.754-1.435-1.348-2.873-1.944-4.234c-0.514-1.395-1.057-2.707-1.432-4.002c-1.645-5.153-2.213-9.334-2.455-12.284
			c-0.157-1.505-0.147-2.513-0.181-3.236c-0.024-0.714-0.037-1.082-0.037-1.082L641,262.5z"/>
	</g>
	<g display="inline" opacity="0.4">
		
			<ellipse transform="matrix(-0.0325 -0.9995 0.9995 -0.0325 1249.4943 1261.5586)" fill="#2FAC66" cx="1235.365" cy="26" rx="183.146" ry="168.493"/>
		<path d="M1229.567-154.554c0,0-1.077,0.063-3.165,0.184c-2.074,0.146-5.236,0.206-9.12,0.73
			c-7.827,0.83-19.513,2.689-33.571,7.563c-3.553,1.115-7.14,2.713-10.965,4.219c-3.724,1.744-7.668,3.475-11.59,5.662
			c-7.907,4.235-16.129,9.472-24.275,15.911c-16.295,12.831-32.263,30.643-44.613,53.109c-6.162,11.217-11.495,23.533-15.429,36.783
			c-3.917,13.248-6.545,27.375-7.599,42.036c-0.186,1.828-0.178,3.676-0.275,5.522c-0.06,1.849-0.178,3.702-0.19,5.564
			c0.013,1.862,0.026,3.73,0.039,5.604l0.019,2.815c0.023,0.856,0.094,1.872,0.139,2.802c0.102,1.9,0.204,3.808,0.307,5.72
			c0.088,1.918,0.352,3.774,0.52,5.673c0.213,1.89,0.327,3.787,0.621,5.686c0.281,1.898,0.563,3.803,0.844,5.712
			c0.246,1.916,0.635,3.812,1.011,5.716c0.379,1.902,0.73,3.816,1.134,5.725c0.463,1.895,0.927,3.794,1.392,5.698l0.705,2.858
			l0.833,2.831c0.557,1.89,1.115,3.784,1.675,5.683c0.646,1.871,1.292,3.746,1.94,5.626c0.328,0.938,0.637,1.885,0.982,2.819
			l1.105,2.78c0.746,1.852,1.456,3.725,2.236,5.571c1.678,3.643,3.225,7.367,5.135,10.935c0.941,1.79,1.783,3.637,2.808,5.39
			c1.003,1.765,2.007,3.532,3.015,5.304c0.989,1.781,2.149,3.464,3.219,5.206l1.639,2.596c0.541,0.87,1.16,1.688,1.737,2.536
			c1.177,1.681,2.354,3.364,3.534,5.05c1.256,1.631,2.514,3.265,3.773,4.9c10.219,12.965,22.373,24.691,36.134,34.422
			c1.679,1.276,3.477,2.381,5.237,3.544c1.77,1.15,3.517,2.34,5.366,3.366c1.83,1.059,3.644,2.15,5.491,3.184l5.646,2.923
			c7.619,3.725,15.506,6.977,23.653,9.502c8.161,2.469,16.517,4.337,24.987,5.551c8.486,1.083,17.055,1.52,25.621,1.343
			c8.611-0.345,17.08-1.293,25.505-2.889c8.388-1.725,16.624-4.095,24.634-7.057c7.992-3.018,15.683-6.746,23.078-10.933
			l5.473-3.267c1.786-1.146,3.534-2.348,5.302-3.517c1.788-1.14,3.466-2.436,5.167-3.694c1.691-1.271,3.424-2.485,5.027-3.863
			c13.184-10.573,24.646-23.053,34.102-36.664c1.164-1.715,2.324-3.428,3.484-5.139c1.08-1.761,2.158-3.52,3.236-5.275
			c0.526-0.885,1.098-1.742,1.588-2.646l1.484-2.701c0.967-1.811,2.027-3.569,2.912-5.415c0.901-1.836,1.801-3.67,2.699-5.5
			c0.921-1.82,1.654-3.722,2.488-5.574c1.699-3.693,3.025-7.521,4.486-11.277c0.672-1.9,1.27-3.821,1.906-5.725l0.939-2.856
			c0.291-0.958,0.543-1.927,0.816-2.888c0.535-1.925,1.07-3.846,1.604-5.763c0.446-1.938,0.892-3.873,1.337-5.803l0.662-2.893
			l0.535-2.911c0.352-1.939,0.701-3.874,1.051-5.804c0.289-1.939,0.525-3.882,0.791-5.815c0.262-1.934,0.537-3.86,0.667-5.799
			c0.167-1.934,0.334-3.862,0.5-5.786c0.181-1.923,0.181-3.852,0.28-5.769c0.053-1.918,0.204-3.83,0.176-5.739
			c-0.013-1.909-0.025-3.813-0.039-5.71c-0.012-0.942-0.002-1.91-0.031-2.828l-0.152-2.838c-0.101-1.89-0.201-3.772-0.302-5.649
			c-0.126-1.873-0.356-3.721-0.529-5.573c-0.211-1.848-0.314-3.699-0.611-5.526c-1.95-14.67-5.451-28.717-10.2-41.81
			c-4.765-13.093-10.883-25.169-17.774-36.095c-13.813-21.883-31.007-38.884-48.255-50.853
			c-8.625-6.009-17.258-10.802-25.518-14.604c-4.104-1.972-8.199-3.483-12.077-5.02c-3.964-1.292-7.695-2.688-11.362-3.602
			c-14.556-4.077-26.463-5.244-34.527-5.609c-4.04-0.293-7.146-0.159-9.236-0.181c-2.092,0.006-3.17,0.009-3.17,0.009
			L1229.567-154.554z M1229.418-157.049c0,0,1.078-0.008,3.17-0.023c2.091,0.012,5.197-0.135,9.238,0.139
			c8.07,0.329,19.989,1.442,34.584,5.459c3.676,0.898,7.418,2.279,11.395,3.556c3.891,1.521,8.002,3.018,12.123,4.975
			c8.293,3.772,16.969,8.537,25.645,14.523c17.348,11.923,34.68,28.9,48.65,50.813c6.971,10.939,13.172,23.044,18.02,36.181
			c4.833,13.137,8.417,27.244,10.445,41.99c0.307,1.835,0.421,3.707,0.642,5.568c0.183,1.866,0.423,3.738,0.558,5.616
			c0.109,1.876,0.219,3.759,0.328,5.647l0.165,2.838c0.036,0.979,0.028,1.912,0.046,2.873c0.021,1.909,0.043,3.824,0.065,5.745
			c0.036,1.922-0.106,3.847-0.151,5.778c-0.09,1.93-0.084,3.871-0.256,5.808c-0.158,1.938-0.317,3.88-0.477,5.828
			c-0.123,1.952-0.391,3.894-0.646,5.843c-0.258,1.947-0.486,3.905-0.77,5.86c-0.344,1.945-0.688,3.896-1.031,5.852l-0.525,2.936
			l-0.655,2.917c-0.438,1.946-0.88,3.897-1.321,5.854c-0.528,1.934-1.059,3.872-1.59,5.814c-0.271,0.971-0.521,1.947-0.81,2.915
			l-0.935,2.884c-0.633,1.922-1.228,3.861-1.895,5.78c-1.457,3.794-2.777,7.661-4.475,11.394c-0.832,1.872-1.564,3.794-2.484,5.635
			c-0.897,1.851-1.797,3.705-2.699,5.563c-0.884,1.866-1.945,3.645-2.913,5.477l-1.487,2.733c-0.489,0.915-1.063,1.784-1.59,2.68
			c-1.08,1.777-2.16,3.558-3.244,5.341c-1.162,1.732-2.327,3.467-3.494,5.205c-9.486,13.789-21.016,26.459-34.311,37.22
			c-1.615,1.401-3.363,2.64-5.07,3.934c-1.717,1.282-3.409,2.602-5.215,3.765c-1.784,1.192-3.55,2.418-5.354,3.586l-5.529,3.334
			c-7.475,4.277-15.256,8.093-23.35,11.19c-8.111,3.042-16.461,5.486-24.971,7.274c-8.523,1.66-17.242,2.671-25.891,3.051
			c-8.703,0.221-17.414-0.183-26.051-1.247c-8.619-1.194-17.127-3.056-25.443-5.531c-8.302-2.532-16.343-5.804-24.113-9.56
			l-5.76-2.949c-1.885-1.043-3.735-2.145-5.604-3.214c-1.887-1.038-3.67-2.238-5.477-3.401c-1.797-1.175-3.631-2.293-5.346-3.582
			c-14.048-9.839-26.471-21.716-36.93-34.864c-1.29-1.659-2.577-3.315-3.863-4.969c-1.208-1.711-2.415-3.419-3.62-5.123
			c-0.591-0.86-1.226-1.691-1.78-2.573l-1.679-2.634c-1.097-1.768-2.284-3.477-3.301-5.285c-1.032-1.798-2.063-3.593-3.093-5.385
			c-1.049-1.78-1.917-3.654-2.882-5.473c-1.96-3.623-3.554-7.405-5.278-11.107c-0.803-1.877-1.534-3.779-2.303-5.662l-1.137-2.826
			c-0.357-0.949-0.676-1.912-1.016-2.865c-0.668-1.911-1.335-3.818-2-5.721c-0.579-1.93-1.156-3.855-1.732-5.777l-0.86-2.88
			l-0.731-2.907c-0.482-1.937-0.963-3.869-1.443-5.797c-0.42-1.941-0.787-3.889-1.182-5.825c-0.392-1.937-0.796-3.866-1.055-5.816
			c-0.297-1.943-0.592-3.881-0.886-5.813c-0.308-1.931-0.438-3.895-0.665-5.832c-0.18-1.937-0.458-3.89-0.555-5.799
			c-0.111-1.912-0.222-3.818-0.332-5.719c-0.051-0.971-0.121-1.853-0.154-2.893l-0.033-2.868c-0.022-1.909-0.045-3.813-0.066-5.71
			c0.005-1.897,0.115-3.787,0.168-5.672c0.092-1.883,0.076-3.766,0.256-5.631c1.006-14.95,3.621-29.379,7.561-42.926
			c3.957-13.549,9.347-26.162,15.599-37.665c12.53-23.039,28.81-41.376,45.487-54.633c8.338-6.652,16.769-12.077,24.889-16.475
			c4.027-2.267,8.08-4.072,11.909-5.882c3.933-1.574,7.624-3.231,11.28-4.401c1.816-0.613,3.564-1.273,5.299-1.801
			c1.744-0.502,3.437-0.99,5.078-1.463c0.82-0.236,1.629-0.47,2.424-0.698c0.806-0.187,1.598-0.371,2.377-0.552
			c1.561-0.359,3.066-0.706,4.519-1.041c5.839-1.189,10.841-2,14.979-2.412c4.144-0.565,7.198-0.629,9.295-0.787
			c2.087-0.13,3.164-0.196,3.164-0.196L1229.418-157.049z"/>
	</g>
	<g display="inline" opacity="0.4">
		
			<ellipse transform="matrix(-0.0325 -0.9995 0.9995 -0.0325 -92.012 436.8882)" fill="#95C11F" cx="165.456" cy="262.979" rx="183.145" ry="168.494"/>
		<path d="M159.658,82.426c0,0-1.078,0.062-3.165,0.183c-2.074,0.146-5.236,0.206-9.12,0.731c-7.828,0.83-19.513,2.689-33.571,7.563
			c-3.553,1.115-7.14,2.713-10.964,4.219c-3.724,1.743-7.668,3.474-11.591,5.661c-7.907,4.236-16.128,9.472-24.275,15.912
			c-16.294,12.831-32.262,30.642-44.613,53.109c-6.162,11.217-11.495,23.533-15.428,36.783c-3.917,13.249-6.545,27.375-7.599,42.037
			c-0.186,1.828-0.177,3.676-0.275,5.521c-0.06,1.85-0.178,3.703-0.19,5.564c0.013,1.861,0.026,3.73,0.039,5.605l0.019,2.816
			c0.022,0.855,0.094,1.871,0.138,2.801c0.102,1.9,0.204,3.807,0.306,5.721c0.089,1.916,0.352,3.773,0.52,5.672
			c0.213,1.889,0.328,3.787,0.622,5.686c0.281,1.898,0.562,3.803,0.844,5.713c0.245,1.914,0.635,3.811,1.01,5.715
			c0.379,1.902,0.73,3.816,1.134,5.725c0.462,1.895,0.926,3.795,1.391,5.699l0.706,2.857l0.832,2.832
			c0.557,1.889,1.116,3.783,1.675,5.682c0.645,1.871,1.292,3.746,1.94,5.625c0.329,0.939,0.638,1.885,0.983,2.82l1.105,2.779
			c0.747,1.854,1.456,3.725,2.237,5.572c1.678,3.643,3.225,7.367,5.135,10.934c0.94,1.791,1.783,3.637,2.807,5.391
			c1.003,1.764,2.008,3.533,3.014,5.303c0.99,1.783,2.15,3.465,3.219,5.207l1.638,2.596c0.541,0.869,1.161,1.688,1.738,2.535
			c1.176,1.682,2.354,3.365,3.534,5.051c1.256,1.631,2.513,3.264,3.773,4.9c10.22,12.965,22.374,24.691,36.134,34.422
			c1.678,1.275,3.477,2.381,5.237,3.543c1.769,1.15,3.517,2.34,5.367,3.367c1.83,1.059,3.644,2.15,5.492,3.184l5.646,2.924
			c7.619,3.723,15.505,6.975,23.653,9.5c8.162,2.471,16.517,4.338,24.987,5.551c8.488,1.084,17.055,1.52,25.623,1.344
			c8.61-0.346,17.08-1.293,25.504-2.889c8.387-1.725,16.624-4.096,24.634-7.057c7.992-3.018,15.682-6.746,23.079-10.934l5.472-3.266
			c1.786-1.145,3.535-2.348,5.302-3.518c1.789-1.139,3.465-2.436,5.167-3.693c1.691-1.271,3.424-2.486,5.027-3.863
			c13.185-10.574,24.648-23.053,34.103-36.664c1.163-1.715,2.325-3.428,3.484-5.139c1.081-1.762,2.159-3.52,3.236-5.275
			c0.527-0.885,1.099-1.742,1.588-2.646l1.484-2.701c0.966-1.811,2.028-3.568,2.912-5.414c0.901-1.838,1.802-3.672,2.7-5.502
			c0.92-1.818,1.654-3.721,2.488-5.572c1.699-3.693,3.025-7.523,4.487-11.279c0.671-1.898,1.27-3.82,1.906-5.723l0.94-2.857
			c0.29-0.959,0.542-1.926,0.815-2.889c0.536-1.924,1.071-3.846,1.605-5.762c0.446-1.939,0.892-3.873,1.336-5.803l0.663-2.893
			l0.535-2.91c0.351-1.939,0.701-3.875,1.05-5.805c0.29-1.939,0.526-3.883,0.791-5.814c0.262-1.934,0.537-3.861,0.667-5.799
			c0.167-1.936,0.333-3.863,0.5-5.787c0.18-1.922,0.181-3.852,0.281-5.768c0.053-1.92,0.204-3.832,0.176-5.74
			c-0.013-1.91-0.026-3.813-0.04-5.711c-0.012-0.941-0.001-1.91-0.031-2.828l-0.152-2.838c-0.101-1.889-0.202-3.771-0.302-5.648
			c-0.126-1.873-0.357-3.721-0.529-5.574c-0.211-1.848-0.314-3.699-0.611-5.526c-1.951-14.669-5.451-28.716-10.2-41.809
			c-4.765-13.093-10.882-25.169-17.774-36.095c-13.813-21.882-31.007-38.884-48.255-50.853
			c-8.625-6.009-17.258-10.801-25.518-14.604c-4.104-1.972-8.2-3.484-12.078-5.02c-3.963-1.292-7.695-2.688-11.361-3.602
			c-14.556-4.077-26.463-5.245-34.528-5.61c-4.04-0.292-7.145-0.159-9.236-0.18c-2.091,0.006-3.17,0.009-3.17,0.009L159.658,82.426z
			 M159.508,79.931c0,0,1.079-0.008,3.17-0.023c2.091,0.012,5.197-0.136,9.238,0.138c8.07,0.329,19.989,1.442,34.583,5.459
			c3.676,0.898,7.418,2.279,11.396,3.556c3.89,1.52,8.002,3.017,12.122,4.974c8.293,3.772,16.969,8.537,25.645,14.523
			c17.349,11.923,34.68,28.901,48.651,50.813c6.971,10.94,13.172,23.044,18.02,36.181c4.833,13.137,8.417,27.244,10.445,41.99
			c0.307,1.835,0.421,3.708,0.642,5.569c0.182,1.865,0.423,3.738,0.558,5.615c0.109,1.877,0.218,3.76,0.328,5.648l0.165,2.836
			c0.037,0.979,0.029,1.914,0.046,2.873c0.021,1.91,0.043,3.826,0.065,5.746c0.037,1.922-0.106,3.848-0.151,5.779
			c-0.091,1.93-0.084,3.871-0.256,5.807c-0.159,1.938-0.317,3.881-0.477,5.828c-0.123,1.953-0.391,3.895-0.646,5.844
			c-0.258,1.947-0.488,3.906-0.771,5.859c-0.343,1.947-0.687,3.896-1.031,5.852l-0.525,2.936l-0.655,2.918
			c-0.439,1.945-0.879,3.896-1.321,5.854c-0.529,1.934-1.06,3.871-1.591,5.814c-0.271,0.971-0.521,1.947-0.809,2.914l-0.934,2.885
			c-0.633,1.922-1.228,3.861-1.896,5.779c-1.457,3.795-2.777,7.662-4.474,11.395c-0.833,1.871-1.565,3.795-2.484,5.635
			c-0.898,1.85-1.798,3.705-2.7,5.563c-0.884,1.865-1.946,3.645-2.914,5.477l-1.486,2.732c-0.49,0.916-1.063,1.785-1.591,2.68
			c-1.079,1.777-2.16,3.559-3.243,5.342c-1.163,1.732-2.328,3.467-3.494,5.205c-9.487,13.789-21.016,26.459-34.311,37.219
			c-1.616,1.402-3.364,2.641-5.071,3.936c-1.716,1.281-3.409,2.6-5.214,3.764c-1.784,1.191-3.55,2.418-5.354,3.586l-5.528,3.334
			c-7.475,4.277-15.255,8.092-23.35,11.189c-8.111,3.043-16.461,5.486-24.97,7.275c-8.524,1.66-17.243,2.67-25.892,3.051
			c-8.702,0.221-17.414-0.184-26.05-1.248c-8.619-1.193-17.127-3.055-25.443-5.529c-8.302-2.533-16.343-5.805-24.113-9.561
			l-5.759-2.949c-1.885-1.043-3.736-2.145-5.604-3.213c-1.887-1.039-3.671-2.24-5.477-3.402c-1.797-1.176-3.632-2.293-5.346-3.582
			c-14.048-9.84-26.471-21.717-36.931-34.863c-1.29-1.66-2.577-3.316-3.862-4.971c-1.208-1.709-2.416-3.418-3.62-5.123
			c-0.591-0.859-1.226-1.689-1.78-2.572l-1.68-2.635c-1.097-1.768-2.285-3.477-3.301-5.283c-1.033-1.799-2.063-3.594-3.092-5.385
			c-1.049-1.781-1.917-3.656-2.882-5.473c-1.959-3.625-3.554-7.406-5.277-11.109c-0.803-1.877-1.535-3.779-2.303-5.66l-1.138-2.828
			c-0.356-0.949-0.676-1.91-1.015-2.865c-0.668-1.91-1.335-3.816-2-5.719c-0.579-1.932-1.157-3.857-1.733-5.777l-0.86-2.881
			l-0.731-2.906c-0.482-1.938-0.963-3.871-1.443-5.799c-0.42-1.939-0.788-3.887-1.182-5.824c-0.391-1.938-0.796-3.867-1.055-5.816
			c-0.296-1.943-0.591-3.881-0.885-5.814c-0.308-1.93-0.438-3.893-0.665-5.83c-0.18-1.938-0.458-3.891-0.555-5.801
			c-0.111-1.91-0.222-3.816-0.332-5.717c-0.05-0.971-0.12-1.854-0.155-2.893l-0.033-2.869c-0.022-1.91-0.044-3.814-0.065-5.711
			c0.004-1.896,0.115-3.787,0.167-5.671c0.092-1.883,0.076-3.766,0.255-5.631c1.006-14.951,3.621-29.379,7.562-42.926
			c3.956-13.548,9.346-26.162,15.598-37.665c12.53-23.039,28.81-41.376,45.488-54.632c8.338-6.653,16.769-12.078,24.888-16.475
			c4.029-2.267,8.081-4.072,11.91-5.882c3.932-1.573,7.623-3.231,11.279-4.4c1.816-0.614,3.564-1.274,5.3-1.801
			c1.743-0.502,3.436-0.99,5.077-1.463c0.821-0.236,1.629-0.469,2.424-0.698c0.806-0.187,1.599-0.371,2.378-0.552
			c1.56-0.359,3.066-0.707,4.518-1.041c5.838-1.189,10.84-2,14.979-2.413c4.144-0.564,7.198-0.628,9.294-0.786
			c2.087-0.13,3.165-0.197,3.165-0.197L159.508,79.931z"/>
	</g>
	<g display="inline" opacity="0.4">
		
			<ellipse transform="matrix(0.6633 0.7484 -0.7484 0.6633 100.3787 130.6192)" fill="#3AAA35" cx="-94.963" cy="176.856" rx="183.146" ry="168.494"/>
		<path d="M24.805,312.094c0,0,0.79-0.736,2.319-2.162c1.502-1.438,3.898-3.504,6.551-6.387c5.493-5.639,13.298-14.531,21.003-27.26
			c2.022-3.127,3.762-6.648,5.743-10.25c1.752-3.719,3.681-7.57,5.303-11.759c3.38-8.309,6.362-17.589,8.519-27.747
			c4.345-20.279,5.258-44.183,0.415-69.36c-2.422-12.566-6.185-25.45-11.619-38.157c-5.446-12.697-12.446-25.246-20.998-37.201
			c-1.025-1.525-2.212-2.941-3.315-4.425c-1.135-1.46-2.228-2.963-3.407-4.403c-1.2-1.425-2.403-2.854-3.61-4.288l-1.813-2.155
			c-0.564-0.645-1.267-1.38-1.895-2.067c-1.292-1.398-2.588-2.8-3.889-4.206c-1.292-1.419-2.681-2.679-4.022-4.034
			c-1.371-1.317-2.671-2.705-4.11-3.978c-1.429-1.282-2.861-2.568-4.297-3.857c-1.412-1.317-2.923-2.528-4.428-3.753
			c-1.507-1.222-3-2.471-4.529-3.681c-1.566-1.163-3.136-2.328-4.71-3.497l-2.368-1.749l-2.449-1.647
			c-1.635-1.098-3.275-2.199-4.918-3.302c-1.691-1.028-3.386-2.058-5.085-3.09c-0.852-0.512-1.694-1.043-2.557-1.542l-2.626-1.434
			c-1.757-0.948-3.5-1.936-5.279-2.859c-3.618-1.731-7.187-3.61-10.935-5.135c-1.866-0.777-3.694-1.66-5.602-2.354
			c-1.899-0.718-3.801-1.437-5.707-2.157c-1.899-0.739-3.867-1.292-5.802-1.95l-2.918-0.952c-0.972-0.324-1.971-0.558-2.957-0.841
			c-1.979-0.542-3.96-1.085-5.945-1.629c-2.008-0.453-4.019-0.906-6.032-1.361c-16.145-3.451-32.986-4.712-49.789-3.413
			c-2.106,0.09-4.195,0.389-6.293,0.618c-2.096,0.245-4.201,0.445-6.28,0.836c-2.084,0.355-4.177,0.672-6.259,1.058l-6.211,1.356
			c-8.241,2-16.387,4.534-24.27,7.793c-7.857,3.313-15.479,7.211-22.772,11.687c-7.223,4.586-14.095,9.723-20.574,15.33
			c-6.406,5.764-12.317,11.902-17.781,18.51c-5.354,6.683-10.178,13.768-14.45,21.162c-4.223,7.426-7.76,15.207-10.777,23.151
			l-2.125,6.008c-0.643,2.022-1.221,4.064-1.834,6.092c-0.648,2.02-1.111,4.087-1.617,6.142c-0.49,2.058-1.048,4.1-1.401,6.184
			c-3.394,16.555-4.245,33.479-2.828,49.992c0.2,2.063,0.4,4.123,0.601,6.179c0.293,2.045,0.586,4.088,0.879,6.126
			c0.159,1.017,0.267,2.042,0.468,3.051l0.583,3.027c0.413,2.011,0.719,4.041,1.217,6.026c0.479,1.989,0.957,3.975,1.435,5.957
			c0.454,1.988,1.104,3.921,1.645,5.878c1.052,3.928,2.476,7.721,3.75,11.544c0.697,1.891,1.463,3.751,2.189,5.622l1.101,2.799
			c0.389,0.923,0.813,1.829,1.216,2.743c0.817,1.823,1.632,3.644,2.445,5.459c0.895,1.777,1.787,3.55,2.677,5.318l1.337,2.649
			l1.448,2.581c0.969,1.717,1.935,3.43,2.898,5.138c1.016,1.678,2.074,3.323,3.105,4.981c1.033,1.654,2.052,3.313,3.189,4.889
			c1.107,1.594,2.21,3.186,3.311,4.771c1.089,1.594,2.32,3.078,3.468,4.617c1.185,1.51,2.29,3.078,3.53,4.529
			c1.229,1.461,2.455,2.916,3.677,4.369c0.611,0.717,1.221,1.469,1.83,2.156l1.93,2.086c1.284,1.391,2.564,2.775,3.84,4.154
			c1.293,1.361,2.651,2.637,3.966,3.951c1.342,1.287,2.604,2.646,4,3.863c10.869,10.041,22.534,18.615,34.549,25.658
			c12.028,7.031,24.448,12.418,36.729,16.424c24.604,8.018,48.693,10.121,69.609,8.316c10.474-0.885,20.178-2.711,28.962-5.059
			c4.417-1.104,8.535-2.557,12.5-3.852c3.875-1.535,7.639-2.844,11.043-4.482c13.805-6.16,23.713-12.865,30.153-17.734
			c3.295-2.355,5.6-4.441,7.222-5.76c1.605-1.34,2.434-2.031,2.434-2.031L24.805,312.094z M26.514,313.918
			c0,0-0.826,0.695-2.425,2.041c-1.616,1.326-3.913,3.424-7.198,5.795c-6.42,4.9-16.303,11.654-30.099,17.885
			c-3.402,1.656-7.164,2.984-11.04,4.541c-3.965,1.314-8.085,2.789-12.505,3.914c-8.791,2.393-18.509,4.268-29.008,5.201
			c-20.965,1.904-45.144-0.092-69.888-8.031c-12.351-3.967-24.853-9.322-36.973-16.334c-12.108-7.023-23.875-15.59-34.854-25.641
			c-1.408-1.217-2.691-2.584-4.05-3.877c-1.332-1.318-2.713-2.605-4.016-3.965c-1.282-1.375-2.569-2.754-3.859-4.137l-1.939-2.078
			c-0.653-0.73-1.244-1.453-1.87-2.182c-1.236-1.455-2.476-2.916-3.72-4.379c-1.255-1.455-2.375-3.027-3.574-4.543
			c-1.163-1.543-2.408-3.033-3.512-4.633c-1.115-1.592-2.233-3.189-3.355-4.789c-1.152-1.58-2.186-3.246-3.234-4.908
			c-1.045-1.664-2.119-3.318-3.149-5.003c-0.979-1.716-1.96-3.437-2.943-5.161l-1.47-2.595l-1.359-2.663
			c-0.905-1.778-1.813-3.561-2.722-5.348c-0.828-1.826-1.658-3.656-2.49-5.49c-0.411-0.92-0.842-1.832-1.238-2.76l-1.123-2.816
			c-0.74-1.883-1.521-3.755-2.232-5.658c-1.303-3.849-2.755-7.669-3.834-11.625c-0.555-1.972-1.219-3.918-1.687-5.922
			c-0.491-1.998-0.982-3.999-1.475-6.004c-0.511-2.001-0.831-4.048-1.256-6.076l-0.602-3.053c-0.208-1.017-0.322-2.051-0.487-3.077
			c-0.304-2.057-0.609-4.118-0.915-6.182c-0.211-2.076-0.423-4.155-0.635-6.237c-1.506-16.67-0.726-33.782,2.633-50.553
			c0.348-2.111,0.903-4.18,1.39-6.266c0.502-2.083,0.962-4.178,1.609-6.226c0.611-2.057,1.188-4.128,1.83-6.179l2.125-6.097
			c3.021-8.064,6.572-15.969,10.822-23.522c4.299-7.521,9.164-14.735,14.569-21.545c5.5-6.721,11.563-13.067,17.976-18.883
			c6.556-5.728,13.517-10.98,20.843-15.677c7.395-4.585,15.131-8.587,23.111-11.993c8.005-3.353,16.283-5.971,24.661-8.043
			l6.315-1.408c2.117-0.402,4.245-0.736,6.364-1.106c2.115-0.406,4.254-0.622,6.386-0.88c2.134-0.243,4.259-0.555,6.402-0.658
			c17.094-1.4,34.238-0.194,50.684,3.244c2.052,0.453,4.1,0.906,6.146,1.358c2.022,0.544,4.042,1.087,6.058,1.63
			c1.004,0.284,2.022,0.519,3.013,0.844l2.975,0.954c1.973,0.66,3.979,1.217,5.915,1.959c1.943,0.724,3.882,1.447,5.818,2.169
			c1.944,0.7,3.81,1.588,5.713,2.371c3.822,1.537,7.464,3.43,11.155,5.177c1.817,0.931,3.595,1.928,5.388,2.886l2.681,1.449
			c0.88,0.503,1.741,1.04,2.61,1.557c1.735,1.043,3.466,2.085,5.192,3.124c1.678,1.116,3.353,2.229,5.023,3.339l2.5,1.667l2.42,1.77
			c1.608,1.183,3.212,2.363,4.813,3.54c1.563,1.225,3.089,2.489,4.629,3.727c1.538,1.241,3.082,2.468,4.526,3.802
			c1.469,1.306,2.934,2.609,4.395,3.909c1.469,1.289,2.824,2.716,4.235,4.063c1.376,1.375,2.837,2.701,4.13,4.108
			c1.307,1.4,2.609,2.796,3.908,4.188c0.659,0.715,1.275,1.349,1.966,2.127l1.857,2.186c1.236,1.455,2.469,2.906,3.697,4.353
			c1.208,1.462,2.33,2.987,3.493,4.471c1.132,1.507,2.346,2.946,3.399,4.496c8.773,12.147,15.976,24.92,21.595,37.861
			c5.608,12.952,9.516,26.101,12.051,38.945c5.071,25.731,4.254,50.238-0.113,71.09c-2.168,10.444-5.191,20.003-8.631,28.571
			c-1.652,4.318-3.617,8.295-5.408,12.133c-2.021,3.723-3.803,7.355-5.87,10.59c-1.006,1.633-1.929,3.258-2.928,4.771
			c-1.021,1.5-2.012,2.955-2.973,4.367c-0.481,0.707-0.954,1.402-1.42,2.086c-0.5,0.658-0.993,1.307-1.477,1.943
			c-0.971,1.271-1.908,2.502-2.812,3.686c-3.733,4.645-7.064,8.463-9.987,11.424c-2.828,3.08-5.138,5.08-6.65,6.541
			c-1.523,1.432-2.309,2.172-2.309,2.172L26.514,313.918z"/>
	</g>
	<g display="inline" opacity="0.4">
		
			<ellipse transform="matrix(0.619 0.7854 -0.7854 0.619 575.2239 -85.7797)" fill="#2FAC66" cx="376.028" cy="550.014" rx="183.145" ry="168.494"/>
		<path d="M487.798,691.932c0,0,0.831-0.689,2.44-2.025c1.583-1.348,4.093-3.271,6.908-5.998c5.81-5.312,14.114-13.74,22.54-26.004
			c2.199-3.005,4.139-6.419,6.325-9.9c1.963-3.612,4.112-7.345,5.973-11.433c3.853-8.101,7.366-17.193,10.104-27.21
			c5.507-19.995,7.796-43.807,4.413-69.221c-1.693-12.686-4.706-25.764-9.399-38.764c-4.705-12.99-10.97-25.922-18.817-38.35
			c-0.936-1.582-2.039-3.064-3.055-4.609c-1.049-1.523-2.053-3.086-3.147-4.593c-1.115-1.491-2.234-2.987-3.356-4.488l-1.686-2.256
			c-0.526-0.676-1.186-1.451-1.773-2.173c-1.209-1.471-2.423-2.944-3.639-4.424c-1.209-1.491-2.522-2.829-3.783-4.259
			c-1.292-1.395-2.51-2.854-3.874-4.208c-1.352-1.362-2.708-2.729-4.067-4.098c-1.334-1.397-2.772-2.692-4.204-4.002
			c-1.434-1.308-2.852-2.64-4.309-3.937c-1.497-1.251-2.997-2.505-4.5-3.763l-2.263-1.883l-2.35-1.785
			c-1.569-1.19-3.143-2.385-4.719-3.581c-1.629-1.123-3.262-2.249-4.899-3.378c-0.821-0.561-1.631-1.14-2.464-1.687l-2.539-1.583
			c-1.7-1.048-3.382-2.135-5.106-3.159c-3.512-1.937-6.966-4.018-10.62-5.756c-1.818-0.884-3.593-1.87-5.457-2.674
			c-1.854-0.826-3.711-1.653-5.572-2.482c-1.854-0.847-3.786-1.514-5.681-2.281l-2.858-1.118c-0.951-0.38-1.936-0.671-2.903-1.011
			c-1.944-0.655-3.891-1.312-5.841-1.97c-1.978-0.567-3.959-1.137-5.944-1.706c-15.918-4.376-32.66-6.606-49.509-6.278
			c-2.108-0.031-4.211,0.146-6.318,0.254c-2.106,0.123-4.219,0.203-6.317,0.473c-2.101,0.234-4.208,0.431-6.309,0.695l-6.279,0.996
			c-8.343,1.521-16.622,3.581-24.679,6.382c-8.035,2.854-15.869,6.306-23.408,10.354c-7.476,4.162-14.632,8.894-21.424,14.118
			c-6.728,5.385-12.984,11.172-18.819,17.454c-5.729,6.363-10.955,13.158-15.646,20.294c-4.644,7.17-8.624,14.733-12.095,22.491
			l-2.467,5.875c-0.759,1.981-1.453,3.987-2.182,5.977c-0.764,1.979-1.346,4.017-1.968,6.039c-0.608,2.026-1.283,4.032-1.755,6.093
			c-4.343,16.332-6.168,33.179-5.706,49.745c0.081,2.071,0.162,4.139,0.243,6.203c0.175,2.06,0.35,4.114,0.524,6.167
			c0.101,1.024,0.149,2.055,0.292,3.073l0.407,3.055c0.296,2.031,0.484,4.076,0.868,6.086c0.363,2.014,0.727,4.024,1.089,6.03
			c0.339,2.011,0.876,3.978,1.304,5.963c0.823,3.981,2.026,7.851,3.077,11.741c0.587,1.928,1.245,3.829,1.862,5.738l0.938,2.857
			c0.334,0.943,0.706,1.873,1.056,2.809c0.71,1.868,1.419,3.732,2.126,5.592c0.791,1.825,1.579,3.647,2.366,5.464l1.182,2.722
			l1.296,2.661c0.868,1.77,1.734,3.535,2.598,5.296c0.917,1.732,1.879,3.438,2.813,5.15c0.936,1.712,1.858,3.427,2.902,5.064
			c1.013,1.656,2.023,3.308,3.03,4.955c0.996,1.654,2.139,3.208,3.196,4.81c1.096,1.576,2.108,3.205,3.263,4.726
			c1.143,1.529,2.283,3.054,3.419,4.573c0.568,0.752,1.134,1.537,1.703,2.259l1.806,2.194c1.202,1.461,2.4,2.917,3.595,4.369
			c1.212,1.433,2.495,2.783,3.732,4.173c1.266,1.362,2.448,2.792,3.771,4.086c10.272,10.653,21.423,19.885,33.013,27.608
			c11.602,7.714,23.691,13.808,35.721,18.516c24.101,9.423,48.028,12.91,69.013,12.314c10.508-0.278,20.301-1.541,29.206-3.38
			c4.473-0.847,8.668-2.059,12.701-3.123c3.958-1.311,7.79-2.4,11.283-3.84c14.137-5.352,24.416-11.476,31.125-15.966
			c3.425-2.16,5.847-4.109,7.542-5.333c1.68-1.245,2.547-1.888,2.547-1.888L487.798,691.932z M489.399,693.852
			c0,0-0.864,0.646-2.539,1.899c-1.69,1.23-4.104,3.191-7.52,5.368c-6.692,4.522-16.948,10.696-31.08,16.12
			c-3.492,1.457-7.324,2.565-11.283,3.896c-4.034,1.084-8.232,2.317-12.71,3.187c-8.915,1.883-18.725,3.193-29.261,3.52
			c-21.039,0.692-45.063-2.694-69.308-12.047c-12.101-4.673-24.274-10.739-35.969-18.439c-11.683-7.709-22.937-16.939-33.317-27.608
			c-1.335-1.295-2.538-2.734-3.82-4.103c-1.253-1.394-2.558-2.759-3.78-4.19c-1.201-1.446-2.406-2.896-3.614-4.353l-1.816-2.187
			c-0.61-0.766-1.158-1.521-1.741-2.285c-1.15-1.524-2.304-3.054-3.461-4.587c-1.169-1.525-2.196-3.159-3.306-4.74
			c-1.071-1.608-2.229-3.167-3.239-4.828c-1.021-1.654-2.046-3.313-3.073-4.975c-1.059-1.645-1.995-3.367-2.946-5.087
			c-0.948-1.722-1.924-3.434-2.856-5.175c-0.878-1.771-1.758-3.545-2.641-5.323l-1.318-2.675l-1.204-2.736
			c-0.801-1.828-1.604-3.66-2.409-5.496c-0.721-1.871-1.444-3.746-2.169-5.625c-0.357-0.941-0.735-1.877-1.077-2.826l-0.959-2.876
			c-0.63-1.923-1.302-3.837-1.903-5.778c-1.078-3.918-2.308-7.814-3.157-11.826c-0.44-2.001-0.991-3.982-1.342-6.01
			c-0.375-2.022-0.75-4.049-1.126-6.079c-0.396-2.027-0.596-4.089-0.904-6.138l-0.424-3.082c-0.148-1.027-0.203-2.066-0.309-3.101
			c-0.186-2.071-0.371-4.146-0.557-6.224c-0.091-2.085-0.183-4.173-0.274-6.264c-0.543-16.729,1.223-33.768,5.543-50.317
			c0.47-2.087,1.143-4.12,1.749-6.175c0.621-2.05,1.201-4.115,1.965-6.123c0.729-2.019,1.424-4.053,2.184-6.063l2.473-5.964
			c3.481-7.877,7.481-15.563,12.16-22.859c4.726-7.261,9.998-14.182,15.787-20.669c5.878-6.392,12.297-12.378,19.035-17.814
			c6.875-5.34,14.128-10.182,21.712-14.448c7.647-4.151,15.601-7.701,23.764-10.641c8.186-2.886,16.6-5.021,25.083-6.607
			l6.386-1.042c2.136-0.279,4.28-0.489,6.417-0.737c2.134-0.283,4.283-0.375,6.427-0.51c2.144-0.12,4.284-0.309,6.429-0.287
			c17.146-0.413,34.192,1.78,50.412,6.16c2.022,0.571,4.041,1.141,6.057,1.71c1.988,0.66,3.972,1.319,5.954,1.977
			c0.986,0.342,1.989,0.635,2.959,1.016l2.914,1.124c1.932,0.772,3.902,1.444,5.792,2.297c1.898,0.835,3.792,1.669,5.684,2.501
			c1.901,0.811,3.712,1.805,5.567,2.696c3.727,1.754,7.254,3.854,10.838,5.812c1.76,1.034,3.478,2.132,5.213,3.191l2.592,1.602
			c0.85,0.553,1.678,1.138,2.517,1.704c1.671,1.143,3.339,2.282,5.003,3.419c1.611,1.21,3.219,2.418,4.822,3.623l2.4,1.809
			l2.314,1.906c1.537,1.273,3.071,2.544,4.6,3.812c1.49,1.313,2.941,2.663,4.407,3.988c1.464,1.327,2.935,2.641,4.3,4.057
			c1.391,1.389,2.778,2.774,4.162,4.155c1.393,1.371,2.663,2.875,3.995,4.3c1.294,1.453,2.677,2.86,3.886,4.34
			c1.224,1.474,2.443,2.942,3.66,4.407c0.617,0.751,1.196,1.42,1.841,2.236l1.728,2.29c1.15,1.523,2.297,3.043,3.44,4.558
			c1.122,1.53,2.153,3.117,3.229,4.666c1.043,1.569,2.173,3.076,3.135,4.685c8.059,12.633,14.512,25.799,19.376,39.043
			c4.852,13.254,7.995,26.606,9.785,39.575c3.579,25.98,1.351,50.399-4.213,70.965c-2.766,10.303-6.335,19.671-10.264,28.026
			c-1.898,4.216-4.089,8.072-6.099,11.801c-2.232,3.6-4.22,7.124-6.47,10.234c-1.098,1.571-2.114,3.14-3.198,4.594
			c-1.105,1.438-2.179,2.835-3.22,4.189c-0.521,0.678-1.033,1.344-1.538,2c-0.538,0.628-1.067,1.247-1.587,1.854
			c-1.042,1.215-2.049,2.388-3.02,3.519c-3.995,4.421-7.54,8.04-10.628,10.828c-3,2.912-5.422,4.775-7.016,6.146
			c-1.603,1.343-2.431,2.036-2.431,2.036L489.399,693.852z"/>
	</g>
	<g display="inline" opacity="0.4">
		<path fill="#95C11F" d="M1366.89,599.749c82.721-42.631,112.213-150.074,65.877-239.986
			c-46.334-89.909-150.951-128.242-233.671-85.611c-82.719,42.628-112.213,150.074-65.88,239.982
			C1179.551,604.047,1284.171,642.377,1366.89,599.749z"/>
		<path d="M1365.684,597.56c0,0,0.947-0.519,2.781-1.523c1.811-1.021,4.641-2.433,7.924-4.572
			c6.715-4.107,16.473-10.801,27.081-21.234c2.731-2.531,5.286-5.514,8.095-8.515c2.615-3.172,5.436-6.428,8.041-10.086
			c5.325-7.218,10.506-15.475,15.103-24.787c9.215-18.579,15.998-41.519,17.518-67.112c0.754-12.775,0.288-26.188-1.843-39.845
			c-2.145-13.648-5.832-27.536-11.168-41.231c-0.617-1.731-1.418-3.396-2.121-5.106c-0.739-1.695-1.428-3.421-2.215-5.108
			c-0.811-1.677-1.624-3.358-2.439-5.046l-1.226-2.535c-0.388-0.764-0.888-1.65-1.326-2.472c-0.907-1.673-1.817-3.352-2.73-5.035
			c-0.902-1.694-1.937-3.258-2.902-4.901c-1.004-1.615-1.921-3.28-3.001-4.869c-1.068-1.595-2.139-3.194-3.213-4.798
			c-1.043-1.625-2.208-3.171-3.364-4.729c-1.159-1.556-2.298-3.134-3.48-4.685c-1.23-1.513-2.465-3.03-3.701-4.551l-1.863-2.279
			l-1.967-2.2c-1.313-1.468-2.63-2.939-3.95-4.414c-1.386-1.413-2.774-2.83-4.166-4.25c-0.699-0.706-1.385-1.429-2.098-2.125
			l-2.191-2.037c-1.469-1.354-2.913-2.74-4.41-4.074c-3.078-2.569-6.073-5.271-9.329-7.674c-1.617-1.213-3.171-2.52-4.848-3.664
			c-1.663-1.164-3.329-2.33-4.998-3.498c-1.658-1.185-3.429-2.207-5.142-3.322l-2.594-1.642c-0.861-0.554-1.771-1.026-2.656-1.546
			c-1.784-1.014-3.57-2.028-5.359-3.045c-1.834-0.935-3.671-1.871-5.51-2.808c-14.794-7.328-30.804-12.707-47.407-15.593
			c-2.063-0.434-4.162-0.66-6.251-0.955c-2.092-0.28-4.181-0.605-6.292-0.739c-2.106-0.171-4.214-0.379-6.326-0.52l-6.354-0.218
			c-8.479-0.096-16.999,0.35-25.442,1.563c-8.431,1.271-16.779,3.168-24.951,5.705c-8.132,2.663-16.059,5.944-23.721,9.778
			c-7.631,4.006-14.874,8.496-21.8,13.551c-6.837,5.155-13.26,10.83-19.225,16.941c-5.925,6.154-11.272,12.822-16.157,19.776
			l-3.542,5.298c-1.122,1.801-2.186,3.637-3.28,5.451c-1.127,1.797-2.086,3.687-3.082,5.554c-0.983,1.873-2.028,3.714-2.884,5.646
			c-7.375,15.206-12.376,31.396-15.078,47.748c-0.314,2.048-0.629,4.094-0.942,6.136c-0.221,2.055-0.44,4.105-0.66,6.153
			c-0.097,1.025-0.245,2.046-0.299,3.072l-0.183,3.077c-0.096,2.05-0.301,4.094-0.308,6.14c-0.026,2.046-0.053,4.089-0.079,6.127
			c-0.051,2.039,0.103,4.072,0.144,6.103c0.05,4.065,0.494,8.092,0.785,12.112c0.209,2.004,0.492,3.996,0.733,5.988l0.377,2.983
			c0.148,0.99,0.336,1.973,0.502,2.958c0.342,1.97,0.683,3.935,1.022,5.895c0.428,1.942,0.855,3.881,1.282,5.814l0.642,2.897
			l0.766,2.858c0.515,1.903,1.028,3.801,1.541,5.694c0.57,1.876,1.19,3.731,1.78,5.592c0.593,1.859,1.171,3.718,1.885,5.524
			c0.679,1.819,1.355,3.633,2.03,5.441c0.662,1.814,1.488,3.557,2.221,5.331c0.775,1.756,1.46,3.548,2.304,5.26
			c0.831,1.719,1.659,3.433,2.485,5.141c0.415,0.847,0.82,1.726,1.241,2.542l1.354,2.498c0.902,1.663,1.801,3.321,2.697,4.974
			c0.917,1.638,1.918,3.208,2.868,4.808c0.983,1.578,1.871,3.207,2.923,4.729c8.055,12.414,17.243,23.602,27.149,33.392
			c9.92,9.782,20.627,18.067,31.54,24.979c21.864,13.842,44.689,21.823,65.404,25.235c10.368,1.729,20.223,2.354,29.314,2.245
			c4.553,0.021,8.902-0.37,13.063-0.646c4.135-0.532,8.104-0.872,11.808-1.62c14.898-2.562,26.154-6.615,33.597-9.745
			c3.774-1.469,6.522-2.921,8.42-3.799c1.887-0.902,2.86-1.368,2.86-1.368L1365.684,597.56z M1366.89,599.749
			c0,0-0.972,0.47-2.854,1.381c-1.893,0.887-4.636,2.352-8.404,3.838c-7.431,3.165-18.675,7.272-33.581,9.904
			c-3.706,0.766-7.679,1.125-11.819,1.677c-4.166,0.296-8.522,0.707-13.084,0.707c-9.109,0.15-18.99-0.432-29.395-2.118
			c-20.786-3.328-43.726-11.229-65.745-25.028c-10.989-6.893-21.784-15.166-31.798-24.953c-10.001-9.793-19.29-20.999-27.448-33.449
			c-1.064-1.526-1.971-3.168-2.969-4.755c-0.965-1.607-1.985-3.195-2.913-4.834c-0.903-1.648-1.81-3.302-2.719-4.961l-1.366-2.492
			c-0.453-0.868-0.847-1.715-1.273-2.575c-0.839-1.716-1.681-3.437-2.524-5.162c-0.857-1.721-1.554-3.52-2.343-5.284
			c-0.745-1.782-1.585-3.533-2.259-5.356c-0.688-1.817-1.378-3.641-2.07-5.469c-0.727-1.816-1.316-3.686-1.923-5.555
			c-0.603-1.87-1.235-3.737-1.817-5.624c-0.525-1.905-1.052-3.814-1.579-5.729l-0.784-2.877l-0.66-2.916
			c-0.438-1.946-0.878-3.898-1.318-5.854c-0.352-1.975-0.704-3.953-1.058-5.936c-0.172-0.992-0.364-1.983-0.519-2.98l-0.394-3.006
			c-0.253-2.007-0.548-4.015-0.768-6.034c-0.313-4.052-0.777-8.111-0.847-12.211c-0.051-2.048-0.214-4.099-0.173-6.155
			c0.018-2.058,0.035-4.118,0.052-6.183c-0.001-2.065,0.194-4.128,0.282-6.198l0.171-3.106c0.05-1.036,0.194-2.066,0.287-3.103
			c0.213-2.068,0.426-4.141,0.639-6.216c0.308-2.063,0.615-4.13,0.924-6.2c2.654-16.526,7.634-32.916,15.027-48.34
			c0.858-1.96,1.906-3.828,2.893-5.729c1-1.894,1.964-3.812,3.096-5.637c1.1-1.843,2.169-3.707,3.298-5.536l3.563-5.384
			c4.918-7.069,10.31-13.854,16.292-20.124c6.022-6.228,12.516-12.019,19.436-17.284c6.987-5.155,14.43-9.809,22.079-13.862
			c7.767-3.933,15.809-7.305,24.066-10.048c8.298-2.619,16.782-4.588,25.355-5.92c8.586-1.273,17.253-1.768,25.884-1.708
			c2.157,0.064,4.313,0.129,6.467,0.193c2.15,0.133,4.295,0.335,6.44,0.499c2.149,0.128,4.276,0.447,6.406,0.723
			c2.128,0.291,4.265,0.514,6.366,0.943c16.91,2.861,33.227,8.261,48.315,15.65c1.877,0.945,3.75,1.889,5.62,2.832
			c1.826,1.026,3.648,2.051,5.469,3.074c0.903,0.523,1.832,1.002,2.712,1.561l2.646,1.659c1.749,1.126,3.555,2.161,5.248,3.358
			c1.705,1.181,3.405,2.359,5.104,3.537c1.712,1.158,3.3,2.479,4.951,3.707c3.325,2.432,6.388,5.166,9.533,7.77
			c1.53,1.351,3.008,2.756,4.509,4.126l2.24,2.065c0.729,0.705,1.431,1.438,2.146,2.153c1.424,1.439,2.844,2.876,4.261,4.309
			c1.352,1.495,2.699,2.987,4.044,4.476l2.012,2.232l1.908,2.313c1.267,1.543,2.53,3.082,3.79,4.618
			c1.213,1.572,2.38,3.174,3.567,4.754c1.184,1.582,2.377,3.152,3.448,4.802c1.101,1.629,2.198,3.253,3.293,4.872
			c1.106,1.611,2.067,3.329,3.103,4.982c0.994,1.673,2.083,3.317,2.988,5c0.921,1.68,1.839,3.354,2.754,5.023
			c0.462,0.855,0.903,1.622,1.381,2.547l1.26,2.576c0.839,1.716,1.676,3.426,2.509,5.131c0.81,1.715,1.521,3.47,2.281,5.194
			c0.726,1.74,1.547,3.435,2.186,5.196c5.504,13.937,9.332,28.092,11.584,42.02c2.238,13.936,2.78,27.642,2.067,40.714
			c-1.436,26.187-8.274,49.734-17.653,68.863c-4.679,9.587-9.967,18.104-15.415,25.559c-2.666,3.776-5.552,7.145-8.234,10.423
			c-2.877,3.107-5.5,6.189-8.302,8.813c-1.377,1.334-2.673,2.68-4.014,3.9c-1.359,1.202-2.68,2.369-3.959,3.5
			c-0.641,0.565-1.271,1.123-1.891,1.67c-0.647,0.515-1.284,1.021-1.911,1.52c-1.254,0.993-2.466,1.953-3.635,2.878
			c-4.764,3.579-8.934,6.457-12.496,8.605c-3.5,2.287-6.232,3.655-8.059,4.697c-1.829,1.013-2.773,1.535-2.773,1.535
			L1366.89,599.749z"/>
	</g>
	<g display="inline" opacity="0.4">
		<path fill="#00A19A" d="M1097.424,293.198c39.252,84.377,145.416,118.188,237.127,75.524
			c91.709-42.662,134.239-145.645,94.987-230.02c-39.25-84.374-145.416-118.187-237.124-75.526
			C1100.701,105.839,1058.174,208.824,1097.424,293.198z"/>
		<path d="M1099.66,292.082c0,0,0.48,0.967,1.41,2.84c0.947,1.851,2.242,4.736,4.248,8.104c3.833,6.875,10.125,16.896,20.122,27.916
			c2.419,2.831,5.295,5.505,8.181,8.433c3.063,2.742,6.202,5.691,9.752,8.442c6.998,5.612,15.038,11.123,24.156,16.092
			c18.192,9.958,40.839,17.664,66.35,20.216c12.735,1.271,26.156,1.347,39.887-0.23c13.724-1.591,27.75-4.713,41.649-9.492
			c1.755-0.546,3.451-1.279,5.188-1.912c1.724-0.671,3.476-1.288,5.193-2.007c1.708-0.742,3.422-1.487,5.141-2.234l2.583-1.121
			c0.778-0.356,1.685-0.82,2.522-1.226c1.709-0.839,3.423-1.681,5.142-2.524c1.729-0.834,3.334-1.804,5.015-2.702
			c1.654-0.938,3.355-1.786,4.986-2.802c1.637-1.003,3.278-2.008,4.924-3.016c1.666-0.978,3.258-2.079,4.861-3.171
			c1.602-1.095,3.225-2.169,4.822-3.288c1.562-1.169,3.127-2.34,4.696-3.515l2.353-1.77l2.278-1.876
			c1.52-1.253,3.043-2.51,4.57-3.769c1.468-1.327,2.939-2.657,4.415-3.991c0.733-0.67,1.483-1.325,2.207-2.01l2.125-2.106
			c1.411-1.413,2.855-2.801,4.248-4.242c2.692-2.973,5.513-5.856,8.045-9.012c1.278-1.566,2.646-3.066,3.857-4.695
			c1.23-1.615,2.463-3.232,3.697-4.853c1.251-1.609,2.344-3.337,3.527-5.003l1.745-2.525c0.588-0.838,1.098-1.729,1.651-2.593
			c1.085-1.741,2.172-3.484,3.26-5.231c1.008-1.794,2.018-3.592,3.028-5.392c7.92-14.485,13.941-30.265,17.497-46.738
			c0.516-2.044,0.826-4.131,1.206-6.207c0.364-2.079,0.773-4.153,0.993-6.257c0.255-2.099,0.549-4.195,0.774-6.3l0.476-6.34
			c0.438-8.469,0.337-17-0.534-25.485c-0.93-8.476-2.487-16.895-4.692-25.162c-2.331-8.232-5.29-16.285-8.812-24.097
			c-3.693-7.786-7.887-15.205-12.658-22.329c-4.875-7.04-10.286-13.688-16.151-19.894c-5.909-6.169-12.355-11.781-19.106-16.943
			l-5.15-3.753c-1.754-1.194-3.546-2.331-5.314-3.499c-1.75-1.198-3.599-2.233-5.424-3.304c-1.832-1.058-3.629-2.176-5.525-3.109
			c-14.896-7.983-30.871-13.635-47.1-16.995c-2.034-0.397-4.065-0.794-6.093-1.19c-2.044-0.303-4.085-0.606-6.122-0.909
			c-1.021-0.138-2.033-0.327-3.058-0.422l-3.066-0.307c-2.045-0.179-4.078-0.466-6.123-0.555c-2.043-0.109-4.083-0.219-6.118-0.328
			c-2.035-0.133-4.073-0.062-6.104-0.103c-4.063-0.115-8.105,0.167-12.134,0.294c-2.011,0.128-4.013,0.331-6.014,0.491l-2.996,0.256
			c-0.995,0.109-1.985,0.256-2.977,0.382c-1.98,0.262-3.958,0.523-5.93,0.783c-1.959,0.35-3.913,0.698-5.862,1.046l-2.921,0.524
			l-2.888,0.65c-1.922,0.438-3.839,0.875-5.751,1.31c-1.897,0.494-3.777,1.038-5.659,1.553c-1.882,0.518-3.763,1.02-5.597,1.66
			c-1.845,0.605-3.685,1.208-5.519,1.809c-1.84,0.588-3.614,1.343-5.417,2.003c-1.785,0.704-3.604,1.315-5.349,2.089
			c-1.751,0.761-3.497,1.519-5.237,2.275c-0.862,0.38-1.757,0.75-2.589,1.138l-2.552,1.252c-1.698,0.834-3.391,1.665-5.078,2.494
			c-1.674,0.85-3.283,1.787-4.92,2.672c-1.616,0.918-3.279,1.74-4.844,2.729c-12.729,7.546-24.279,16.274-34.461,25.777
			c-10.176,9.517-18.887,19.88-26.234,30.505c-14.715,21.287-23.611,43.771-27.859,64.331c-2.146,10.29-3.168,20.111-3.428,29.2
			c-0.205,4.548,0.01,8.91,0.118,13.079c0.365,4.153,0.544,8.133,1.142,11.864c1.957,14.989,5.553,26.401,8.379,33.963
			c1.315,3.83,2.655,6.635,3.456,8.566c0.825,1.921,1.251,2.913,1.251,2.913L1099.66,292.082z M1097.424,293.198
			c0,0-0.431-0.99-1.264-2.907c-0.81-1.928-2.163-4.728-3.496-8.553c-2.861-7.553-6.512-18.954-8.539-33.955
			c-0.615-3.734-0.813-7.718-1.197-11.877c-0.127-4.175-0.362-8.544-0.178-13.102c0.219-9.108,1.199-18.958,3.305-29.286
			c4.166-20.635,12.987-43.235,27.666-64.679c7.33-10.702,16.033-21.153,26.217-30.764c10.189-9.597,21.762-18.425,34.532-26.073
			c1.567-1.002,3.245-1.841,4.871-2.774c1.646-0.899,3.273-1.855,4.947-2.715c1.684-0.836,3.373-1.675,5.067-2.516l2.546-1.264
			c0.885-0.417,1.747-0.777,2.624-1.169c1.748-0.769,3.502-1.54,5.26-2.313c1.754-0.787,3.58-1.41,5.375-2.126
			c1.811-0.673,3.594-1.441,5.443-2.042c1.844-0.614,3.693-1.229,5.548-1.847c1.844-0.652,3.735-1.167,5.628-1.697
			c1.893-0.526,3.784-1.083,5.693-1.589c1.924-0.447,3.854-0.896,5.787-1.346l2.906-0.667l2.94-0.542
			c1.963-0.359,3.93-0.72,5.902-1.081c1.986-0.271,3.978-0.544,5.974-0.817c0.998-0.131,1.995-0.284,2.998-0.398l3.02-0.272
			c2.016-0.171,4.033-0.384,6.061-0.522c4.061-0.148,8.136-0.449,12.235-0.353c2.048,0.032,4.104-0.048,6.157,0.076
			c2.055,0.101,4.113,0.201,6.175,0.302c2.064,0.082,4.117,0.361,6.182,0.532l3.097,0.296c1.034,0.092,2.058,0.278,3.089,0.413
			c2.059,0.296,4.12,0.593,6.185,0.89c2.05,0.391,4.103,0.782,6.158,1.173c16.405,3.32,32.581,8.958,47.693,16.969
			c1.924,0.937,3.748,2.06,5.607,3.122c1.853,1.076,3.729,2.116,5.507,3.321c1.797,1.174,3.616,2.317,5.398,3.52l5.235,3.778
			c6.865,5.2,13.426,10.861,19.449,17.092c5.979,6.269,11.502,12.991,16.484,20.118c4.869,7.191,9.218,14.814,12.959,22.622
			c3.615,7.919,6.659,16.091,9.067,24.453c2.281,8.397,3.905,16.954,4.889,25.575c0.926,8.63,1.069,17.31,0.661,25.931
			c-0.152,2.153-0.304,4.305-0.455,6.455c-0.22,2.143-0.508,4.278-0.759,6.415c-0.215,2.143-0.62,4.255-0.981,6.372
			c-0.377,2.114-0.686,4.24-1.199,6.322c-3.542,16.781-9.598,32.866-17.591,47.644c-1.021,1.836-2.039,3.67-3.057,5.501
			c-1.1,1.783-2.197,3.563-3.293,5.34c-0.56,0.881-1.075,1.79-1.67,2.646l-1.764,2.578c-1.196,1.702-2.303,3.465-3.567,5.108
			c-1.249,1.655-2.496,3.308-3.741,4.956c-1.226,1.664-2.61,3.197-3.904,4.798c-2.564,3.224-5.419,6.173-8.148,9.21
			c-1.411,1.475-2.875,2.895-4.306,4.339l-2.153,2.155c-0.734,0.7-1.494,1.371-2.238,2.057c-1.496,1.364-2.988,2.726-4.478,4.083
			c-1.549,1.29-3.094,2.576-4.636,3.859l-2.312,1.921l-2.388,1.813c-1.593,1.203-3.182,2.403-4.768,3.601
			c-1.62,1.147-3.268,2.249-4.895,3.372c-1.628,1.119-3.245,2.248-4.937,3.251c-1.672,1.034-3.339,2.065-5.002,3.094
			c-1.654,1.04-3.41,1.931-5.104,2.898c-1.711,0.926-3.398,1.947-5.117,2.784c-1.715,0.853-3.425,1.701-5.13,2.548
			c-0.873,0.428-1.657,0.838-2.601,1.277l-2.625,1.155c-1.748,0.769-3.491,1.535-5.228,2.299c-1.747,0.74-3.529,1.379-5.283,2.069
			c-1.768,0.654-3.494,1.407-5.28,1.974c-14.147,4.937-28.445,8.188-42.453,9.876c-14.015,1.673-27.731,1.66-40.765,0.419
			c-26.106-2.492-49.358-10.277-68.093-20.422c-9.391-5.062-17.687-10.69-24.915-16.435c-3.665-2.817-6.915-5.837-10.081-8.649
			c-2.989-3.001-5.962-5.746-8.471-8.651c-1.277-1.43-2.57-2.779-3.735-4.169c-1.146-1.406-2.259-2.772-3.337-4.097
			c-0.539-0.663-1.07-1.314-1.593-1.956c-0.487-0.668-0.968-1.325-1.44-1.972c-0.941-1.293-1.852-2.543-2.729-3.748
			c-3.384-4.904-6.091-9.188-8.094-12.834c-2.145-3.59-3.4-6.375-4.367-8.241c-0.938-1.869-1.422-2.834-1.422-2.834
			L1097.424,293.198z"/>
	</g>
	<g display="inline" opacity="0.4">
		<path fill="#00A19A" d="M37.578,294.406C-46.023,335.282-77.775,442.08-33.345,532.949
			c44.428,90.867,148.213,131.398,231.813,90.521c83.599-40.874,115.353-147.674,70.926-238.541
			C224.966,294.06,121.179,253.531,37.578,294.406z"/>
		<path d="M38.738,296.621c0,0-0.958,0.498-2.813,1.464c-1.832,0.983-4.692,2.334-8.02,4.404c-6.8,3.965-16.697,10.45-27.522,20.658
			c-2.784,2.473-5.401,5.4-8.272,8.342c-2.682,3.116-5.57,6.312-8.252,9.914c-5.476,7.104-10.83,15.25-15.622,24.463
			c-9.604,18.382-16.871,41.173-18.929,66.729c-1.024,12.757-0.84,26.177,1.002,39.875c1.856,13.69,5.25,27.653,10.296,41.458
			c0.581,1.744,1.346,3.426,2.013,5.15c0.703,1.711,1.355,3.45,2.107,5.153c0.775,1.693,1.553,3.393,2.333,5.097l1.171,2.561
			c0.372,0.771,0.853,1.668,1.274,2.498c0.872,1.692,1.746,3.39,2.624,5.092c0.866,1.713,1.868,3.299,2.798,4.962
			c0.969,1.636,1.851,3.32,2.898,4.931c1.034,1.617,2.071,3.239,3.11,4.865c1.009,1.646,2.141,3.217,3.264,4.799
			c1.125,1.58,2.23,3.183,3.38,4.758c1.199,1.538,2.4,3.081,3.605,4.627L-7,570.738l1.919,2.242
			c1.283,1.495,2.568,2.994,3.857,4.496c1.355,1.442,2.714,2.888,4.075,4.337c0.684,0.721,1.354,1.458,2.052,2.168l2.148,2.084
			c1.439,1.383,2.854,2.801,4.323,4.165c3.023,2.635,5.961,5.398,9.166,7.869c1.591,1.247,3.117,2.587,4.77,3.766
			c1.638,1.199,3.279,2.4,4.923,3.604c1.633,1.219,3.381,2.278,5.07,3.429l2.558,1.696c0.85,0.572,1.75,1.064,2.624,1.602
			c1.762,1.051,3.526,2.104,5.294,3.158c1.813,0.973,3.63,1.947,5.449,2.923c14.636,7.639,30.528,13.354,47.068,16.59
			c2.054,0.477,4.146,0.746,6.229,1.086c2.085,0.324,4.167,0.693,6.275,0.872c2.103,0.215,4.205,0.468,6.313,0.652l6.348,0.353
			c8.476,0.274,17.003,0.009,25.47-1.027c8.457-1.093,16.843-2.813,25.066-5.178c8.173-2.483,16.21-5.619,23.892-9.261
			c7.774-3.874,15.066-8.188,22.11-13.104c6.944-5.01,13.486-10.548,19.578-16.532c6.054-6.028,11.54-12.581,16.571-19.432
			l3.652-5.222c1.16-1.776,2.262-3.59,3.395-5.381c1.165-1.772,2.163-3.642,3.199-5.487c1.022-1.852,2.105-3.67,3.002-5.584
			c7.693-15.048,13.035-31.129,16.081-47.42c0.358-2.041,0.715-4.08,1.072-6.114c0.264-2.05,0.527-4.096,0.79-6.139
			c0.118-1.023,0.288-2.04,0.363-3.065l0.248-3.072c0.139-2.048,0.387-4.086,0.437-6.132c0.07-2.045,0.139-4.087,0.209-6.124
			c0.093-2.037-0.017-4.073-0.015-6.104c0.036-4.064-0.324-8.101-0.529-12.126c-0.167-2.008-0.408-4.005-0.608-6.002l-0.313-2.991
			c-0.128-0.993-0.294-1.979-0.439-2.968c-0.3-1.977-0.599-3.947-0.898-5.915c-0.387-1.951-0.773-3.898-1.159-5.841l-0.58-2.909
			l-0.706-2.875c-0.475-1.913-0.948-3.821-1.421-5.725c-0.531-1.888-1.111-3.757-1.662-5.629c-0.554-1.871-1.092-3.741-1.768-5.563
			c-0.641-1.833-1.279-3.66-1.916-5.483c-0.624-1.827-1.413-3.587-2.108-5.376c-0.738-1.772-1.384-3.578-2.192-5.308
			c-0.794-1.736-1.586-3.467-2.376-5.192c-0.397-0.854-0.785-1.742-1.188-2.566l-1.302-2.527c-0.866-1.682-1.73-3.357-2.591-5.029
			c-0.883-1.656-1.851-3.247-2.767-4.866c-0.95-1.599-1.803-3.246-2.823-4.791c-7.791-12.581-16.741-23.96-26.438-33.956
			c-9.712-9.989-20.242-18.498-31.006-25.64c-21.568-14.3-44.22-22.76-64.857-26.608c-10.33-1.946-20.169-2.78-29.261-2.863
			c-4.551-0.116-8.908,0.183-13.074,0.371c-4.146,0.446-8.121,0.702-11.84,1.371c-14.949,2.247-26.288,6.063-33.794,9.035
			c-3.804,1.389-6.583,2.783-8.498,3.62c-1.905,0.862-2.889,1.308-2.889,1.308L38.738,296.621z M37.578,294.406
			c0,0,0.981-0.449,2.882-1.32c1.912-0.847,4.685-2.254,8.484-3.66c7.496-3.007,18.824-6.877,33.783-9.194
			c3.721-0.688,7.701-0.962,11.852-1.427c4.172-0.208,8.536-0.527,13.096-0.432c9.111,0.042,18.977,0.833,29.344,2.737
			c20.711,3.766,43.479,12.148,65.202,26.41c10.842,7.122,21.459,15.622,31.265,25.617c9.792,10.002,18.843,21.401,26.736,34.021
			c1.032,1.548,1.903,3.209,2.868,4.816c0.931,1.627,1.918,3.236,2.811,4.894c0.868,1.667,1.74,3.34,2.614,5.018l1.313,2.521
			c0.435,0.878,0.811,1.732,1.219,2.603c0.803,1.732,1.607,3.471,2.415,5.214c0.82,1.737,1.479,3.552,2.23,5.332
			c0.708,1.798,1.51,3.565,2.146,5.402c0.649,1.832,1.301,3.67,1.954,5.512c0.688,1.831,1.239,3.712,1.806,5.594
			c0.563,1.883,1.156,3.763,1.699,5.662c0.485,1.915,0.97,3.835,1.458,5.76l0.724,2.893l0.599,2.93
			c0.397,1.955,0.795,3.915,1.194,5.88c0.31,1.981,0.621,3.967,0.932,5.957c0.15,0.996,0.322,1.989,0.456,2.99l0.33,3.014
			c0.21,2.012,0.462,4.025,0.64,6.049c0.227,4.058,0.606,8.126,0.589,12.227c0.008,2.049,0.127,4.102,0.043,6.157
			c-0.061,2.057-0.122,4.116-0.183,6.181c-0.042,2.064-0.281,4.122-0.413,6.19l-0.236,3.102c-0.072,1.036-0.238,2.063-0.353,3.096
			c-0.256,2.063-0.513,4.131-0.77,6.201c-0.351,2.057-0.703,4.117-1.054,6.18c-3.002,16.467-8.326,32.748-16.043,48.013
			c-0.899,1.941-1.986,3.787-3.013,5.667c-1.04,1.872-2.043,3.769-3.213,5.57c-1.139,1.818-2.247,3.66-3.415,5.466l-3.676,5.307
			c-5.065,6.965-10.599,13.634-16.712,19.776c-6.152,6.1-12.766,11.752-19.795,16.87c-7.081,5-14.664,9.519-22.336,13.379
			c-7.909,3.799-15.976,6.979-24.304,9.555c-8.352,2.442-16.875,4.232-25.475,5.383c-8.61,1.092-17.286,1.403-25.913,1.162
			c-2.156-0.11-4.31-0.22-6.462-0.33c-2.147-0.178-4.287-0.425-6.428-0.635c-2.146-0.173-4.266-0.537-6.39-0.857
			c-2.121-0.336-4.252-0.604-6.344-1.077c-16.847-3.217-33.045-8.96-47.975-16.666c-1.856-0.984-3.709-1.968-5.56-2.95
			c-1.804-1.064-3.604-2.128-5.402-3.189c-0.892-0.542-1.811-1.04-2.678-1.617l-2.611-1.714c-1.725-1.163-3.509-2.235-5.177-3.468
			c-1.679-1.217-3.354-2.432-5.027-3.645c-1.687-1.194-3.247-2.548-4.872-3.811c-3.272-2.502-6.277-5.3-9.366-7.97
			c-1.502-1.383-2.949-2.818-4.421-4.221l-2.196-2.111c-0.714-0.721-1.4-1.467-2.1-2.198c-1.393-1.469-2.783-2.936-4.169-4.397
			c-1.319-1.523-2.636-3.044-3.949-4.56l-1.964-2.275l-1.859-2.352c-1.234-1.569-2.464-3.135-3.692-4.696
			c-1.179-1.599-2.312-3.225-3.466-4.829c-1.151-1.606-2.311-3.201-3.346-4.873c-1.066-1.651-2.13-3.298-3.19-4.94
			c-1.072-1.634-1.996-3.372-2.996-5.047c-0.958-1.693-2.013-3.36-2.883-5.063c-0.885-1.698-1.767-3.392-2.646-5.08
			c-0.444-0.864-0.869-1.64-1.327-2.575l-1.206-2.603c-0.803-1.732-1.603-3.46-2.4-5.182c-0.773-1.732-1.447-3.502-2.171-5.242
			c-0.688-1.755-1.474-3.466-2.075-5.24c-5.21-14.051-8.738-28.282-10.696-42.255c-1.944-13.979-2.197-27.694-1.208-40.749
			c1.987-26.15,9.321-49.548,19.101-68.476c4.879-9.486,10.346-17.89,15.95-25.228c2.746-3.72,5.702-7.026,8.453-10.247
			c2.941-3.047,5.629-6.072,8.485-8.637c1.405-1.305,2.729-2.623,4.096-3.815c1.384-1.172,2.729-2.312,4.032-3.415
			c0.652-0.552,1.293-1.096,1.925-1.63c0.658-0.501,1.306-0.994,1.942-1.479c1.275-0.967,2.507-1.9,3.695-2.801
			c4.838-3.478,9.068-6.267,12.675-8.34c3.548-2.213,6.308-3.522,8.155-4.526c1.851-0.974,2.806-1.477,2.806-1.477L37.578,294.406z"
			/>
	</g>
</g>
</svg>
